<?xml version="1.0" encoding="UTF-8"?>
<svg version="1.1" xmlns="http://www.w3.org/2000/svg" width="400" height="277">
<path d="M0 0 C0.99 0.33 1.98 0.66 3 1 C2.34 4.63 1.68 8.26 1 12 C2.32 11.67 3.64 11.34 5 11 C5.495 12.98 5.495 12.98 6 15 C5.030625 15.268125 4.06125 15.53625 3.0625 15.8125 C2.051875 16.204375 1.04125 16.59625 0 17 C-0.495 18.485 -0.495 18.485 -1 20 C0.485 20.495 0.485 20.495 2 21 C1.505 22.485 1.505 22.485 1 24 C-0.65 24 -2.3 24 -4 24 C-4 24.66 -4 25.32 -4 26 C-3.34 26.33 -2.68 26.66 -2 27 C-2.495 28.485 -2.495 28.485 -3 30 C-4.98 30 -6.96 30 -9 30 C-9 32.83967231 -8.59732819 35.23735711 -8 38 C-10.64 37.67 -13.28 37.34 -16 37 C-16.495 37.99 -16.495 37.99 -17 39 C-16.01 39.495 -16.01 39.495 -15 40 C-15.33 41.65 -15.66 43.3 -16 45 C-18.31 44.34 -20.62 43.68 -23 43 C-23.33 43.33 -23.66 43.66 -24 44 C-23.01 44.99 -22.02 45.98 -21 47 C-21.495 47.99 -21.495 47.99 -22 49 C-24.31 48.67 -26.62 48.34 -29 48 C-29.96548612 49.2235563 -30.92205898 50.45414811 -31.875 51.6875 C-32.40867188 52.37199219 -32.94234375 53.05648437 -33.4921875 53.76171875 C-39.39504237 62.52424683 -39.3880576 71.84273944 -37.4453125 81.82421875 C-36.70702473 85.45334973 -35.91945878 89.07031958 -35.125 92.6875 C-34.72858772 94.56405675 -34.33403987 96.44100837 -33.94140625 98.31835938 C-32.98239309 102.88374684 -31.99823765 107.44303557 -31 112 C-28.525 111.505 -28.525 111.505 -26 111 C-25.89510254 110.04915527 -25.89510254 110.04915527 -25.78808594 109.07910156 C-23.38622201 87.8175858 -18.26508216 65.88034722 -4 49 C-1.89746094 48.37866211 -1.89746094 48.37866211 0 48 C0.5880262 62.70065509 -0.18710696 75.15184025 -10 87 C-12.7516051 89.77825503 -15.23522257 91.74507419 -19 93 C-20.03868137 95.91939594 -20.03868137 95.91939594 -20.6875 99.375 C-21.06455078 101.11910156 -21.06455078 101.11910156 -21.44921875 102.8984375 C-22.08742317 105.96728332 -22.08742317 105.96728332 -22 109 C-19.36 108.67 -16.72 108.34 -14 108 C-13.505 106.515 -13.505 106.515 -13 105 C-9.87366215 103.37169903 -7.26046842 102.1376248 -3.74609375 101.75390625 C-1.19782067 101.47363933 0.68462647 101.12144243 3 100 C4.83374008 97.48142333 6.07928718 94.89538365 7.4140625 92.08203125 C11.59281278 83.96125792 18.50707315 76.26481431 26 71 C26.66 71 27.32 71 28 71 C27.53524057 85.82582591 23.5647744 95.54248219 13 106 C17.30302655 106.34222544 21.60526146 106.62919028 25.91503906 106.86669922 C27.37857993 106.95497731 28.84131302 107.0579796 30.30273438 107.17626953 C38.69505035 108.17462345 38.69505035 108.17462345 46.21020508 105.32250977 C47.81055974 103.25579625 47.81055974 103.25579625 48.90991211 101.04907227 C50.12541349 98.76425634 51.463965 97.58538927 53.4375 95.9375 C56.38849028 93.2177751 56.38849028 93.2177751 55.9375 89.5625 C55.628125 88.386875 55.31875 87.21125 55 86 C53.72035794 79.70842655 53.72035794 79.70842655 54.9375 76.625 C58.04532533 74.17641034 61.10838292 73.94496703 65 74 C67.375 74.5625 67.375 74.5625 69 76 C71.02843665 80.36113881 71.35326088 84.23097817 71 89 C70 91.4375 70 91.4375 69 93 C68.195625 92.979375 67.39125 92.95875 66.5625 92.9375 C64.06645115 92.70366379 64.06645115 92.70366379 63 94 C63.61746094 94.05542969 64.23492187 94.11085938 64.87109375 94.16796875 C67 95 67 95 68.16015625 97.36328125 C68.45792969 98.33652344 68.75570312 99.30976563 69.0625 100.3125 C70.24926383 104.12746183 71.30216593 107.01943353 74 110 C77.23912477 111.19316447 80.6478786 111.48615558 84.0625 111.9375 C84.96677734 112.08767578 85.87105469 112.23785156 86.80273438 112.39257812 C93.54149023 113.34149514 98.66864593 112.43566377 105 110 C104.67 111.32 104.34 112.64 104 114 C105.05058594 114.19335938 106.10117188 114.38671875 107.18359375 114.5859375 C114.48619068 115.93778729 121.7641032 117.32023824 129 119 C129.23976562 118.31808594 129.47953125 117.63617188 129.7265625 116.93359375 C131.26122226 113.39822724 133.2623095 110.26950895 135.375 107.0625 C135.76171875 106.46759766 136.1484375 105.87269531 136.546875 105.25976562 C137.69163443 103.502291 138.84435455 101.75033167 140 100 C140.56702637 99.13737549 140.56702637 99.13737549 141.14550781 98.25732422 C143.8771438 94.1228562 143.8771438 94.1228562 145 93 C143.35 93 141.7 93 140 93 C138.03456283 89.06912566 138.67103957 84.295106 139 80 C140.0625 76.9375 140.0625 76.9375 142 75 C144.31029085 74.25740651 146.645752 73.588562 149 73 C149.495 72.443125 149.99 71.88625 150.5 71.3125 C151.2425 70.6628125 151.2425 70.6628125 152 70 C155.6875 70.3125 155.6875 70.3125 159 71 C160.1875 73.75 160.1875 73.75 161 77 C159.8125 79.375 159.8125 79.375 158 81 C157.01 81 156.02 81 155 81 C154.7834375 82.5778125 154.7834375 82.5778125 154.5625 84.1875 C154.12450509 87.15613214 153.603567 90.06331688 153 93 C153.67546875 92.82082031 154.3509375 92.64164062 155.046875 92.45703125 C155.93890625 92.24433594 156.8309375 92.03164062 157.75 91.8125 C159.07257813 91.48185547 159.07257813 91.48185547 160.421875 91.14453125 C163 91 163 91 165.328125 92.44921875 C165.87984375 92.96097656 166.4315625 93.47273438 167 94 C166.125 100.75 166.125 100.75 165 103 C164.34 103 163.68 103 163 103 C163.55429687 104.05058594 164.10859375 105.10117188 164.6796875 106.18359375 C171.8594527 120.01616891 171.8594527 120.01616891 173 128 C174.09570312 128.11214844 175.19140625 128.22429687 176.3203125 128.33984375 C181.60607048 129.0002723 186.71156748 130.27883328 191.875 131.5625 C193.74690789 132.02411859 195.61928208 132.48385172 197.4921875 132.94140625 C198.31058105 133.14451416 199.12897461 133.34762207 199.97216797 133.55688477 C201.97970227 134.0711598 201.97970227 134.0711598 204 134 C203.566875 132.94425781 203.566875 132.94425781 203.125 131.8671875 C200.05770099 123.70902416 199.47274073 116.6621166 200 108 C200.03222656 107.24074219 200.06445312 106.48148437 200.09765625 105.69921875 C200.36577861 102.48862533 200.95732356 101.05043579 203.0625 98.5625 C203.701875 98.046875 204.34125 97.53125 205 97 C203.35 96.01 201.7 95.02 200 94 C199.608125 94.495 199.21625 94.99 198.8125 95.5 C196.44908285 97.45593143 194.98564997 97.24207973 192 97 C191.67 95.35 191.34 93.7 191 92 C192.65 91.01 194.3 90.02 196 89 C195.34 88.01 194.68 87.02 194 86 C191.56306689 85.63583953 191.56306689 85.63583953 188.875 85.8125 C187.96492188 85.83957031 187.05484375 85.86664063 186.1171875 85.89453125 C185.41851562 85.92933594 184.71984375 85.96414062 184 86 C184.33 84.35 184.66 82.7 185 81 C186.485 80.505 186.485 80.505 188 80 C187.34 79.01 186.68 78.02 186 77 C182.41642759 76.74984127 182.41642759 76.74984127 179 77 C178.67 75.68 178.34 74.36 178 73 C179.32 72.34 180.64 71.68 182 71 C181.67 69.35 181.34 67.7 181 66 C178.36 66 175.72 66 173 66 C172.67 64.68 172.34 63.36 172 62 C173.8125 60.9375 173.8125 60.9375 176 60 C176.99 60.33 177.98 60.66 179 61 C178.7834375 60.02160156 178.7834375 60.02160156 178.5625 59.0234375 C177.55372706 54.27379823 176.74284694 49.88590812 177 45 C178.32 45 179.64 45 181 45 C181.33 47.64 181.66 50.28 182 53 C183.32 53 184.64 53 186 53 C185.67 54.65 185.34 56.3 185 58 C184.01 58.33 183.02 58.66 182 59 C182.33 60.98 182.66 62.96 183 65 C186.465 64.505 186.465 64.505 190 64 C189.25 68.75 189.25 68.75 187 71 C187.66 71.66 188.32 72.32 189 73 C189.99 72.01 190.98 71.02 192 70 C193.32 70.66 194.64 71.32 196 72 C194.84826645 74.46800047 193.95216435 76.04783565 192 78 C192.99 78.99 193.98 79.98 195 81 C196.485 78.525 196.485 78.525 198 76 C199.65 76.33 201.3 76.66 203 77 C203.36923077 81.55384615 203.36923077 81.55384615 201.5 83.8125 C200.7575 84.4003125 200.7575 84.4003125 200 85 C201.36983503 88.16115776 201.9890638 88.9927092 205 91 C205 89.35 205 87.7 205 86 C206.32 85.34 207.64 84.68 209 84 C209.66 84.66 210.32 85.32 211 86 C210.73775349 88.01055661 210.39764263 90.01178687 210 92 C209.56613908 95.87797662 209.56613908 95.87797662 211.5 97.75 C211.995 98.1625 212.49 98.575 213 99 C213.33 96.69 213.66 94.38 214 92 C215.485 91.505 215.485 91.505 217 91 C218.5625 92.125 218.5625 92.125 220 94 C219.73066742 97.23199091 219.02471429 99.92585714 218 103 C218.99 103.99 219.98 104.98 221 106 C221.3403125 105.0409375 221.3403125 105.0409375 221.6875 104.0625 C223 102 223 102 225.625 101.25 C226.40875 101.1675 227.1925 101.085 228 101 C228.6875 103.3125 228.6875 103.3125 229 106 C227.5625 107.8125 227.5625 107.8125 226 109 C226.26554687 109.53109375 226.53109375 110.0621875 226.8046875 110.609375 C230.40234375 117.8046875 230.40234375 117.8046875 234 125 C234.14695312 123.87207031 234.29390625 122.74414062 234.4453125 121.58203125 C237.08846339 102.57953304 240.86870428 78.09780924 255 64 C256.485 63.505 256.485 63.505 258 63 C257.53074715 80.22157961 255.48859542 98.70975803 244.59765625 112.81640625 C243 114 243 114 238 115 C238 123.58 238 132.16 238 141 C239.32 138.69 240.64 136.38 242 134 C243.31800604 132.3455356 244.6707205 130.7179037 246.0625 129.125 C251.51433804 122.40106641 252.76851525 116.18377616 254.4375 107.8125 C255.9337899 100.63956388 258.24696879 95.60992034 264.1640625 90.984375 C267.90664911 88.97771154 271.81521069 88.65240349 276 89 C281.77234856 91.77927894 285.29023032 95.96625671 287.75 101.8125 C290.68969872 110.45392205 288.68385523 118.50325803 284.78125 126.49609375 C281.17964883 132.5888024 277.47556025 134.58776598 271 137 C265.88357531 139.81925442 262.55140444 143.56026534 258.83203125 147.9765625 C257 150 257 150 254 152 C254.79664063 152.27972656 255.59328125 152.55945313 256.4140625 152.84765625 C264.02791228 155.72832204 269.28717817 158.57435633 273 166 C273.71051499 172.91878533 273.53634567 179.39885294 269 185 C267.33607955 185.67349161 265.66967972 186.3409159 264 187 C263.5359375 188.6396875 263.5359375 188.6396875 263.0625 190.3125 C261.78347398 194.75147267 259.87923675 196.73572447 256 199 C245.5672839 203.87130713 233.99902897 203.81919556 223 201 C218.44595554 199.20062898 215.02278911 197.27073799 211.9375 193.4375 C211 191 211 191 211 187 C205.39 187.99 199.78 188.98 194 190 C194.66 190.33 195.32 190.66 196 191 C194.2703384 195.20953787 191.31793255 198.35143576 188.375 201.75 C187.859375 202.35199219 187.34375 202.95398438 186.8125 203.57421875 C185.54530865 205.05260866 184.27314225 206.52673171 183 208 C182.01 207.67 181.02 207.34 180 207 C180.49489295 204.19560664 181.12686849 201.63432024 182.0625 198.9375 C183.20269345 195.87880621 183.20269345 195.87880621 183 192 C182.34 192 181.68 192 181 192 C179.56418526 193.61457079 178.19855217 195.29219075 176.875 197 C175.78832031 198.3921875 175.78832031 198.3921875 174.6796875 199.8125 C174.12539063 200.534375 173.57109375 201.25625 173 202 C169.69530043 200.62823791 168.55667882 199.43518378 166.8125 196.375 C165.09137723 194.1931042 163.83650202 193.13952254 161.06494141 192.67724609 C156.03017464 192.37447748 151.02584135 192.64740757 146 193 C145.93941406 193.60328125 145.87882813 194.2065625 145.81640625 194.828125 C145.73261719 195.62734375 145.64882812 196.4265625 145.5625 197.25 C145.44068359 198.43335938 145.44068359 198.43335938 145.31640625 199.640625 C145 202 145 202 144 206 C138.72 205.67 133.44 205.34 128 205 C128.33 205.66 128.66 206.32 129 207 C129 208.98 129 210.96 129 213 C122.07 213 115.14 213 108 213 C108.33 211.68 108.66 210.36 109 209 C111.78551322 207.73065221 114.592633 206.97326058 117.53125 206.125 C120.10099025 205.28923948 120.10099025 205.28923948 120.71875 203.3125 C120.8115625 202.549375 120.904375 201.78625 121 201 C121.66 198.69 122.32 196.38 123 194 C110.79 193.67 98.58 193.34 86 193 C86.66 196.96 87.32 200.92 88 205 C91.27791321 206.31116529 94.47054933 207.52764307 97.8125 208.625 C98.60269531 208.88539063 99.39289063 209.14578125 100.20703125 209.4140625 C100.79871094 209.60742188 101.39039063 209.80078125 102 210 C102 210.99 102 211.98 102 213 C94.74 213 87.48 213 80 213 C79.5978125 210.339375 79.5978125 210.339375 79.1875 207.625 C78.24293071 201.90322058 76.7914172 196.50559928 75 191 C74.44127197 191.02755371 73.88254395 191.05510742 73.30688477 191.08349609 C68.1341209 191.22185257 63.3140111 190.81412599 58.21484375 189.9140625 C57.02439453 189.70652344 55.83394531 189.49898437 54.60742188 189.28515625 C52.15284082 188.84361905 49.70215126 188.37989632 47.25585938 187.89453125 C41.01777729 186.84639822 37.04819082 186.29264714 31.62890625 189.8984375 C30.38967886 190.89662974 29.16743553 191.91871994 28 193 C28.21571655 194.07858276 28.21571655 194.07858276 28.43579102 195.17895508 C29.29052734 199.45263672 30.14526367 203.72631836 31 208 C27.98264206 207.66700329 27.01144059 207.01183726 24.859375 204.78515625 C24.16328125 203.88667969 23.4671875 202.98820313 22.75 202.0625 C22.04359375 201.16660156 21.3371875 200.27070313 20.609375 199.34765625 C19 197 19 197 19 195 C18.34 195 17.68 195 17 195 C17 194.34 17 193.68 17 193 C16.34 193 15.68 193 15 193 C16.49835228 188.33845958 19.88463591 187.13389249 24 185 C19.06734801 183.35064449 14.13114194 181.71378426 9.1875 180.09765625 C7.12497935 179.41933362 5.06247966 178.74094726 3 178.0625 C1.97132812 177.72798828 0.94265625 177.39347656 -0.1171875 177.04882812 C-5.65501312 175.2205002 -10.94002977 173.24519228 -16.16015625 170.63452148 C-18.19052845 169.72559237 -18.19052845 169.72559237 -21 171 C-22.68749704 173.54672255 -22.68749704 173.54672255 -24.1875 176.5625 C-24.71730469 177.57441406 -25.24710938 178.58632812 -25.79296875 179.62890625 C-26.19128906 180.41136719 -26.58960938 181.19382813 -27 182 C-25.329375 181.9690625 -25.329375 181.9690625 -23.625 181.9375 C-20 182 -20 182 -18 183 C-17.84102503 187.37181155 -17.93045755 191.49665051 -18.6875 195.8125 C-18.81511719 196.54082031 -18.94273438 197.26914063 -19.07421875 198.01953125 C-20.43686076 200.93455023 -22.10664146 201.68299506 -25 203 C-29.70607981 203.76006673 -34.80892211 204.16641485 -39.11328125 201.875 C-40.75 200.5 -40.75 200.5 -43 198 C-43.61875 198.639375 -44.2375 199.27875 -44.875 199.9375 C-47.40454851 202.39265003 -48.30574285 202.93828825 -51.8125 203.25 C-55.51664171 202.95947908 -57.21422807 202.467398 -60 200 C-61.0625 196.625 -61.0625 196.625 -61 193 C-59.0625 190.0625 -59.0625 190.0625 -57 188 C-59.97 185.03 -62.94 182.06 -66 179 C-65.505 178.01 -65.505 178.01 -65 177 C-63.35 177.99 -61.7 178.98 -60 180 C-60.495 179.05125 -60.99 178.1025 -61.5 177.125 C-63 174 -63 174 -63 172 C-58.70761377 173.65091778 -56.1206085 176.73754566 -53 180 C-52.81824219 179.43410156 -52.63648437 178.86820313 -52.44921875 178.28515625 C-52.19785156 177.55167969 -51.94648437 176.81820312 -51.6875 176.0625 C-51.44386719 175.33160156 -51.20023438 174.60070312 -50.94921875 173.84765625 C-50 172 -50 172 -47 171 C-47.33 173.97 -47.66 176.94 -48 180 C-47.51789062 179.4946875 -47.03578125 178.989375 -46.5390625 178.46875 C-45.90742187 177.8190625 -45.27578125 177.169375 -44.625 176.5 C-43.68527344 175.52546875 -43.68527344 175.52546875 -42.7265625 174.53125 C-41 173 -41 173 -39 173 C-41.66666667 178.33333333 -44.33333333 183.66666667 -47 189 C-45.515 189.99 -45.515 189.99 -44 191 C-44.04125 189.88625 -44.0825 188.7725 -44.125 187.625 C-44 184 -44 184 -42 182 C-39.34462628 181.43479997 -36.70855287 181.26211802 -34 181 C-34.59105538 177.80992648 -35.20022377 174.62356286 -35.8125 171.4375 C-35.97814453 170.54224609 -36.14378906 169.64699219 -36.31445312 168.72460938 C-37.72977581 161.43436236 -39.31261854 155.29442555 -44.625 149.8125 C-47.92585485 146.39326006 -47.92585485 146.39326006 -48.3984375 143.88671875 C-48.59695312 143.26410156 -48.79546875 142.64148438 -49 142 C-50.6476038 141.28752268 -52.31763529 140.62599617 -54 140 C-63.68512849 131.48882648 -68.04725771 120.5102514 -70 108 C-70.04376832 106.00047897 -70.05686323 103.99919148 -70 102 C-64.15351025 102.67201032 -60.78798181 108.17535785 -57.24853516 112.41552734 C-54.13400315 116.36807188 -51.53447432 120.66118138 -49 125 C-48.32904297 124.41992188 -48.32904297 124.41992188 -47.64453125 123.828125 C-37.3960396 115 -37.3960396 115 -35 115 C-35.44472656 113.3603125 -35.44472656 113.3603125 -35.8984375 111.6875 C-37.19269656 106.51046374 -37.91086277 101.28315807 -38.625 96 C-38.82609375 94.55173828 -38.82609375 94.55173828 -39.03125 93.07421875 C-39.35804154 90.71665124 -39.68087073 88.35861476 -40 86 C-40.89976563 85.90074219 -41.79953125 85.80148438 -42.7265625 85.69921875 C-49.3807354 84.27786201 -53.41743261 79.21724285 -57.25 73.84765625 C-68.62010039 55.90622355 -66.10657627 37.11612261 -64 17 C-59.90964165 20.53684656 -57.71116754 24.71404228 -55.25 29.4375 C-54.81824463 30.26064697 -54.38648926 31.08379395 -53.94165039 31.93188477 C-48.62619096 42.3332258 -43.68069097 53.58975561 -41 65 C-40.82984375 64.27554688 -40.6596875 63.55109375 -40.484375 62.8046875 C-38.26342588 53.94451815 -38.26342588 53.94451815 -35.6875 50.6875 C-33.57885012 48.02830512 -33.57885012 48.02830512 -34.75 44.625 C-35.1625 43.75875 -35.575 42.8925 -36 42 C-34.1875 41.375 -34.1875 41.375 -32 41 C-31.01 41.66 -30.02 42.32 -29 43 C-27.56911472 40.13822943 -28.40008303 38.06624227 -29 35 C-27.02 34.505 -27.02 34.505 -25 34 C-24.34 35.32 -23.68 36.64 -23 38 C-22.34 37.01 -21.68 36.02 -21 35 C-21.33 34.67 -21.66 34.34 -22 34 C-22.04063832 32.33382885 -22.042721 30.66611905 -22 29 C-20.0625 29.3125 -20.0625 29.3125 -18 30 C-17.505 31.485 -17.505 31.485 -17 33 C-16.34 31.68 -15.68 30.36 -15 29 C-15.66 28.01 -16.32 27.02 -17 26 C-17 25.01 -17 24.02 -17 23 C-16.01 22.67 -15.02 22.34 -14 22 C-13.01 23.65 -12.02 25.3 -11 27 C-10.01879536 23.94736336 -10.01879536 22.05263664 -11 19 C-9.35 19.33 -7.7 19.66 -6 20 C-5.67 19.34 -5.34 18.68 -5 18 C-5.66 18 -6.32 18 -7 18 C-7 16.68 -7 15.36 -7 14 C-5.68 14 -4.36 14 -3 14 C-2.67 13.01 -2.34 12.02 -2 11 C-2.99 10.01 -2.99 10.01 -4 9 C-4 8.01 -4 7.02 -4 6 C-3.01 6 -2.02 6 -1 6 C-1.020625 5.195625 -1.04125 4.39125 -1.0625 3.5625 C-1 1 -1 1 0 0 Z M196 82 C197 84 197 84 197 84 Z M220 110 C220.28657512 120.07311539 221.38849295 127.58273943 227 136 C227.70812814 138.32108669 228.38024152 140.65377147 229 143 C230.65 143.33 232.3 143.66 234 144 C233.76277941 130.629385 230.27471675 119.87308558 221 110 C220.67 110 220.34 110 220 110 Z M-34 160 C-33.67 161.98 -33.34 163.96 -33 166 C-32.67 166 -32.34 166 -32 166 C-32 164.35 -32 162.7 -32 161 C-32.66 160.67 -33.32 160.34 -34 160 Z M-28 164 C-27 167 -27 167 -27 167 Z M-32 169 C-31 171 -31 171 -31 171 Z M257 170 C256.52949219 170.33773437 256.05898438 170.67546875 255.57421875 171.0234375 C254.95160156 171.46945313 254.32898438 171.91546875 253.6875 172.375 C253.07261719 172.81585938 252.45773437 173.25671875 251.82421875 173.7109375 C250.2347608 174.83410907 248.61937829 175.92041447 247 177 C247.69867188 177.27714844 248.39734375 177.55429688 249.1171875 177.83984375 C250.02726562 178.20207031 250.93734375 178.56429687 251.875 178.9375 C252.77992188 179.29714844 253.68484375 179.65679687 254.6171875 180.02734375 C257 181 257 181 259 182 C259.05422947 180.5629191 259.09289723 179.12524538 259.125 177.6875 C259.14820313 176.88699219 259.17140625 176.08648437 259.1953125 175.26171875 C259.15817322 172.71611424 259.15817322 172.71611424 257 170 Z " fill="#F0F0F0" transform="translate(93,30)"/>
<path d="M0 0 C0.99 0.33 1.98 0.66 3 1 C2.34 4.63 1.68 8.26 1 12 C2.32 11.67 3.64 11.34 5 11 C5.495 12.98 5.495 12.98 6 15 C5.030625 15.268125 4.06125 15.53625 3.0625 15.8125 C2.051875 16.204375 1.04125 16.59625 0 17 C-0.495 18.485 -0.495 18.485 -1 20 C0.485 20.495 0.485 20.495 2 21 C1.505 22.485 1.505 22.485 1 24 C-0.65 24 -2.3 24 -4 24 C-4 24.66 -4 25.32 -4 26 C-3.34 26.33 -2.68 26.66 -2 27 C-2.495 28.485 -2.495 28.485 -3 30 C-4.98 30 -6.96 30 -9 30 C-9 32.83967231 -8.59732819 35.23735711 -8 38 C-10.64 37.67 -13.28 37.34 -16 37 C-16.495 37.99 -16.495 37.99 -17 39 C-16.01 39.495 -16.01 39.495 -15 40 C-15.33 41.65 -15.66 43.3 -16 45 C-18.31 44.34 -20.62 43.68 -23 43 C-23.33 43.33 -23.66 43.66 -24 44 C-23.01 44.99 -22.02 45.98 -21 47 C-21.495 47.99 -21.495 47.99 -22 49 C-24.31 48.67 -26.62 48.34 -29 48 C-29.96548612 49.2235563 -30.92205898 50.45414811 -31.875 51.6875 C-32.40867188 52.37199219 -32.94234375 53.05648437 -33.4921875 53.76171875 C-39.39504237 62.52424683 -39.3880576 71.84273944 -37.4453125 81.82421875 C-36.70702473 85.45334973 -35.91945878 89.07031958 -35.125 92.6875 C-34.72858772 94.56405675 -34.33403987 96.44100837 -33.94140625 98.31835938 C-32.98239309 102.88374684 -31.99823765 107.44303557 -31 112 C-28.525 111.505 -28.525 111.505 -26 111 C-25.89510254 110.04915527 -25.89510254 110.04915527 -25.78808594 109.07910156 C-23.38622201 87.8175858 -18.26508216 65.88034722 -4 49 C-1.89746094 48.37866211 -1.89746094 48.37866211 0 48 C0.5880262 62.70065509 -0.18710696 75.15184025 -10 87 C-12.7516051 89.77825503 -15.23522257 91.74507419 -19 93 C-20.03868137 95.91939594 -20.03868137 95.91939594 -20.6875 99.375 C-21.06455078 101.11910156 -21.06455078 101.11910156 -21.44921875 102.8984375 C-22.08742317 105.96728332 -22.08742317 105.96728332 -22 109 C-19.36 108.67 -16.72 108.34 -14 108 C-13.505 106.515 -13.505 106.515 -13 105 C-9.87366215 103.37169903 -7.26046842 102.1376248 -3.74609375 101.75390625 C-1.19782067 101.47363933 0.68462647 101.12144243 3 100 C4.83374008 97.48142333 6.07928718 94.89538365 7.4140625 92.08203125 C11.59281278 83.96125792 18.50707315 76.26481431 26 71 C26.66 71 27.32 71 28 71 C27.53293392 85.89940781 23.55262775 95.44737225 13 106 C23.23 106.66 33.46 107.32 44 108 C42.65691394 111.35771515 41.40123114 114.14630452 39.6875 117.25 C37.32758468 121.89325521 35.80190042 126.57540167 34.375 131.5625 C34.16311035 132.30177734 33.9512207 133.04105469 33.73291016 133.80273438 C32.87322082 136.83501922 32.03420028 139.87031669 31.23046875 142.91796875 C29.66650448 148.37812472 27.70216741 150.76072912 23 154 C26.81756824 155.37432457 30.07255329 154.67975039 34 154 C33.95875 152.906875 33.9175 151.81375 33.875 150.6875 C34 147 34 147 36 144 C38.8203125 143.70703125 38.8203125 143.70703125 42.125 143.8125 C43.76855469 143.85310547 43.76855469 143.85310547 45.4453125 143.89453125 C46.28835937 143.92933594 47.13140625 143.96414062 48 144 C50.05450844 163.28806564 50.05450844 163.28806564 46.85302734 169.07226562 C43.51557725 172.9265037 39.33254525 175.39249578 35 178 C33.5494171 179.23479371 32.10924604 180.48211024 30.6875 181.75 C28.07977099 184.04833743 27.04567858 184.00206942 23.46484375 183.83984375 C18.13869486 182.98270594 13.01965272 181.40541927 7.875 179.8125 C6.86469727 179.50441406 5.85439453 179.19632813 4.81347656 178.87890625 C-2.18946912 176.69454224 -8.83861182 174.13080996 -15.453125 170.96875 C-18.06177035 169.66901082 -18.06177035 169.66901082 -21 171 C-22.68749704 173.54672255 -22.68749704 173.54672255 -24.1875 176.5625 C-24.71730469 177.57441406 -25.24710938 178.58632812 -25.79296875 179.62890625 C-26.19128906 180.41136719 -26.58960938 181.19382813 -27 182 C-25.329375 181.9690625 -25.329375 181.9690625 -23.625 181.9375 C-20 182 -20 182 -18 183 C-17.84102503 187.37181155 -17.93045755 191.49665051 -18.6875 195.8125 C-18.81511719 196.54082031 -18.94273438 197.26914063 -19.07421875 198.01953125 C-20.43686076 200.93455023 -22.10664146 201.68299506 -25 203 C-29.70607981 203.76006673 -34.80892211 204.16641485 -39.11328125 201.875 C-40.75 200.5 -40.75 200.5 -43 198 C-43.61875 198.639375 -44.2375 199.27875 -44.875 199.9375 C-47.40454851 202.39265003 -48.30574285 202.93828825 -51.8125 203.25 C-55.51664171 202.95947908 -57.21422807 202.467398 -60 200 C-61.0625 196.625 -61.0625 196.625 -61 193 C-59.0625 190.0625 -59.0625 190.0625 -57 188 C-59.97 185.03 -62.94 182.06 -66 179 C-65.505 178.01 -65.505 178.01 -65 177 C-63.35 177.99 -61.7 178.98 -60 180 C-60.495 179.05125 -60.99 178.1025 -61.5 177.125 C-63 174 -63 174 -63 172 C-58.70761377 173.65091778 -56.1206085 176.73754566 -53 180 C-52.81824219 179.43410156 -52.63648437 178.86820313 -52.44921875 178.28515625 C-52.19785156 177.55167969 -51.94648437 176.81820312 -51.6875 176.0625 C-51.44386719 175.33160156 -51.20023438 174.60070312 -50.94921875 173.84765625 C-50 172 -50 172 -47 171 C-47.33 173.97 -47.66 176.94 -48 180 C-47.51789062 179.4946875 -47.03578125 178.989375 -46.5390625 178.46875 C-45.90742187 177.8190625 -45.27578125 177.169375 -44.625 176.5 C-43.68527344 175.52546875 -43.68527344 175.52546875 -42.7265625 174.53125 C-41 173 -41 173 -39 173 C-41.66666667 178.33333333 -44.33333333 183.66666667 -47 189 C-45.515 189.99 -45.515 189.99 -44 191 C-44.04125 189.88625 -44.0825 188.7725 -44.125 187.625 C-44 184 -44 184 -42 182 C-39.34462628 181.43479997 -36.70855287 181.26211802 -34 181 C-34.59105538 177.80992648 -35.20022377 174.62356286 -35.8125 171.4375 C-35.97814453 170.54224609 -36.14378906 169.64699219 -36.31445312 168.72460938 C-37.72977581 161.43436236 -39.31261854 155.29442555 -44.625 149.8125 C-47.92585485 146.39326006 -47.92585485 146.39326006 -48.3984375 143.88671875 C-48.59695312 143.26410156 -48.79546875 142.64148438 -49 142 C-50.6476038 141.28752268 -52.31763529 140.62599617 -54 140 C-63.68512849 131.48882648 -68.04725771 120.5102514 -70 108 C-70.04376832 106.00047897 -70.05686323 103.99919148 -70 102 C-64.15351025 102.67201032 -60.78798181 108.17535785 -57.24853516 112.41552734 C-54.13400315 116.36807188 -51.53447432 120.66118138 -49 125 C-48.32904297 124.41992188 -48.32904297 124.41992188 -47.64453125 123.828125 C-37.3960396 115 -37.3960396 115 -35 115 C-35.44472656 113.3603125 -35.44472656 113.3603125 -35.8984375 111.6875 C-37.19269656 106.51046374 -37.91086277 101.28315807 -38.625 96 C-38.82609375 94.55173828 -38.82609375 94.55173828 -39.03125 93.07421875 C-39.35804154 90.71665124 -39.68087073 88.35861476 -40 86 C-40.89976563 85.90074219 -41.79953125 85.80148438 -42.7265625 85.69921875 C-49.3807354 84.27786201 -53.41743261 79.21724285 -57.25 73.84765625 C-68.62010039 55.90622355 -66.10657627 37.11612261 -64 17 C-59.90964165 20.53684656 -57.71116754 24.71404228 -55.25 29.4375 C-54.81824463 30.26064697 -54.38648926 31.08379395 -53.94165039 31.93188477 C-48.62619096 42.3332258 -43.68069097 53.58975561 -41 65 C-40.82984375 64.27554688 -40.6596875 63.55109375 -40.484375 62.8046875 C-38.26342588 53.94451815 -38.26342588 53.94451815 -35.6875 50.6875 C-33.57885012 48.02830512 -33.57885012 48.02830512 -34.75 44.625 C-35.1625 43.75875 -35.575 42.8925 -36 42 C-34.1875 41.375 -34.1875 41.375 -32 41 C-31.01 41.66 -30.02 42.32 -29 43 C-27.56911472 40.13822943 -28.40008303 38.06624227 -29 35 C-27.02 34.505 -27.02 34.505 -25 34 C-24.34 35.32 -23.68 36.64 -23 38 C-22.34 37.01 -21.68 36.02 -21 35 C-21.33 34.67 -21.66 34.34 -22 34 C-22.04063832 32.33382885 -22.042721 30.66611905 -22 29 C-20.0625 29.3125 -20.0625 29.3125 -18 30 C-17.505 31.485 -17.505 31.485 -17 33 C-16.34 31.68 -15.68 30.36 -15 29 C-15.66 28.01 -16.32 27.02 -17 26 C-17 25.01 -17 24.02 -17 23 C-16.01 22.67 -15.02 22.34 -14 22 C-13.01 23.65 -12.02 25.3 -11 27 C-10.01879536 23.94736336 -10.01879536 22.05263664 -11 19 C-9.35 19.33 -7.7 19.66 -6 20 C-5.67 19.34 -5.34 18.68 -5 18 C-5.66 18 -6.32 18 -7 18 C-7 16.68 -7 15.36 -7 14 C-5.68 14 -4.36 14 -3 14 C-2.67 13.01 -2.34 12.02 -2 11 C-2.99 10.01 -2.99 10.01 -4 9 C-4 8.01 -4 7.02 -4 6 C-3.01 6 -2.02 6 -1 6 C-1.020625 5.195625 -1.04125 4.39125 -1.0625 3.5625 C-1 1 -1 1 0 0 Z M-34 160 C-33.67 161.98 -33.34 163.96 -33 166 C-32.67 166 -32.34 166 -32 166 C-32 164.35 -32 162.7 -32 161 C-32.66 160.67 -33.32 160.34 -34 160 Z M-28 164 C-27 167 -27 167 -27 167 Z M-32 169 C-31 171 -31 171 -31 171 Z " fill="#EEEFEF" transform="translate(93,30)"/>
<path d="M0 0 C1.32 0 2.64 0 4 0 C4.33 2.64 4.66 5.28 5 8 C6.32 8 7.64 8 9 8 C8.67 9.65 8.34 11.3 8 13 C7.01 13.33 6.02 13.66 5 14 C5.33 15.98 5.66 17.96 6 20 C9.465 19.505 9.465 19.505 13 19 C12.25 23.75 12.25 23.75 10 26 C10.66 26.66 11.32 27.32 12 28 C12.99 27.01 13.98 26.02 15 25 C16.32 25.66 17.64 26.32 19 27 C17.84826645 29.46800047 16.95216435 31.04783565 15 33 C15.99 33.99 16.98 34.98 18 36 C18.99 34.35 19.98 32.7 21 31 C22.65 31.33 24.3 31.66 26 32 C26.36923077 36.55384615 26.36923077 36.55384615 24.5 38.8125 C24.005 39.204375 23.51 39.59625 23 40 C24.36983503 43.16115776 24.9890638 43.9927092 28 46 C28 44.35 28 42.7 28 41 C29.32 40.34 30.64 39.68 32 39 C32.66 39.66 33.32 40.32 34 41 C33.73775349 43.01055661 33.39764263 45.01178687 33 47 C32.56613908 50.87797662 32.56613908 50.87797662 34.5 52.75 C34.995 53.1625 35.49 53.575 36 54 C36.33 51.69 36.66 49.38 37 47 C37.99 46.67 38.98 46.34 40 46 C41.5625 47.125 41.5625 47.125 43 49 C42.73066742 52.23199091 42.02471429 54.92585714 41 58 C41.99 58.99 42.98 59.98 44 61 C44.226875 60.360625 44.45375 59.72125 44.6875 59.0625 C46 57 46 57 48.625 56.25 C49.40875 56.1675 50.1925 56.085 51 56 C51.6875 58.3125 51.6875 58.3125 52 61 C50.5625 62.8125 50.5625 62.8125 49 64 C49.26554687 64.53109375 49.53109375 65.0621875 49.8046875 65.609375 C52.203125 70.40625 54.6015625 75.203125 57 80 C57.14695312 78.87207031 57.29390625 77.74414062 57.4453125 76.58203125 C60.08846339 57.57953304 63.86870428 33.09780924 78 19 C78.99 18.67 79.98 18.34 81 18 C80.53074715 35.22157961 78.48859542 53.70975803 67.59765625 67.81640625 C66 69 66 69 61 70 C61 78.58 61 87.16 61 96 C62.32 93.69 63.64 91.38 65 89 C66.31800604 87.3455356 67.6707205 85.7179037 69.0625 84.125 C74.51433804 77.40106641 75.76851525 71.18377616 77.4375 62.8125 C78.9337899 55.63956388 81.24696879 50.60992034 87.1640625 45.984375 C90.90664911 43.97771154 94.81521069 43.65240349 99 44 C104.77234856 46.77927894 108.29023032 50.96625671 110.75 56.8125 C113.68969872 65.45392205 111.68385523 73.50325803 107.78125 81.49609375 C104.17964883 87.5888024 100.47556025 89.58776598 94 92 C88.88357531 94.81925442 85.55140444 98.56026534 81.83203125 102.9765625 C80 105 80 105 77 107 C77.79664063 107.27972656 78.59328125 107.55945313 79.4140625 107.84765625 C87.02791228 110.72832204 92.28717817 113.57435633 96 121 C96.71051499 127.91878533 96.53634567 134.39885294 92 140 C90.33607955 140.67349161 88.66967972 141.3409159 87 142 C86.690625 143.093125 86.38125 144.18625 86.0625 145.3125 C84.78347398 149.75147267 82.87923675 151.73572447 79 154 C68.5672839 158.87130713 56.99902897 158.81919556 46 156 C41.4641598 154.20782176 38.04427636 152.22856042 34.875 148.5 C33.78307267 145.38020764 33.76993651 144.07515874 35 141 C38.70464916 136.25341826 43.2625664 133.60297763 49 132 C52.69679221 131.69948657 56.30181499 131.75115017 60 132 C59.6618144 118.10364608 53.00012554 107.80626979 45 97 C45.33 98.32 45.66 99.64 46 101 C42.29385683 101.54047921 40.1462592 101.72668508 36.9296875 99.6875 C29.51000037 93.36807066 24.67496617 86.73326796 23 77 C22.71277603 72.31041596 22.77201083 67.69087726 23 63 C23.04640625 61.85724609 23.04640625 61.85724609 23.09375 60.69140625 C23.36953764 57.48537495 23.95945584 56.04791582 26.0625 53.5625 C27.0215625 52.7890625 27.0215625 52.7890625 28 52 C26.35 51.01 24.7 50.02 23 49 C22.608125 49.495 22.21625 49.99 21.8125 50.5 C19.44908285 52.45593143 17.98564997 52.24207973 15 52 C14.505 49.525 14.505 49.525 14 47 C15.65 46.01 17.3 45.02 19 44 C18.34 43.01 17.68 42.02 17 41 C14.56306689 40.63583953 14.56306689 40.63583953 11.875 40.8125 C10.96492188 40.83957031 10.05484375 40.86664063 9.1171875 40.89453125 C8.41851562 40.92933594 7.71984375 40.96414062 7 41 C7.33 39.35 7.66 37.7 8 36 C9.485 35.505 9.485 35.505 11 35 C10.34 34.01 9.68 33.02 9 32 C5.41642759 31.74984127 5.41642759 31.74984127 2 32 C1.67 30.68 1.34 29.36 1 28 C2.32 27.34 3.64 26.68 5 26 C4.67 24.35 4.34 22.7 4 21 C1.36 21 -1.28 21 -4 21 C-4.33 19.68 -4.66 18.36 -5 17 C-3.1875 15.9375 -3.1875 15.9375 -1 15 C-0.01 15.33 0.98 15.66 2 16 C1.855625 15.34773438 1.71125 14.69546875 1.5625 14.0234375 C0.55372706 9.27379823 -0.25715306 4.88590812 0 0 Z M19 37 C20 39 20 39 20 39 Z M43 65 C43.28657512 75.07311539 44.38849295 82.58273943 50 91 C50.70812814 93.32108669 51.38024152 95.65377147 52 98 C53.65 98.33 55.3 98.66 57 99 C56.76277941 85.629385 53.27471675 74.87308558 44 65 C43.67 65 43.34 65 43 65 Z M80 125 C79.52949219 125.33773437 79.05898438 125.67546875 78.57421875 126.0234375 C77.95160156 126.46945313 77.32898438 126.91546875 76.6875 127.375 C76.07261719 127.81585938 75.45773437 128.25671875 74.82421875 128.7109375 C73.2347608 129.83410907 71.61937829 130.92041447 70 132 C70.69867188 132.27714844 71.39734375 132.55429688 72.1171875 132.83984375 C73.02726562 133.20207031 73.93734375 133.56429687 74.875 133.9375 C75.77992188 134.29714844 76.68484375 134.65679687 77.6171875 135.02734375 C80 136 80 136 82 137 C82.05422947 135.5629191 82.09289723 134.12524538 82.125 132.6875 C82.14820313 131.88699219 82.17140625 131.08648437 82.1953125 130.26171875 C82.15817322 127.71611424 82.15817322 127.71611424 80 125 Z " fill="#88C4CB" transform="translate(270,75)"/>
<path d="M0 0 C1.06347656 0.00966797 2.12695312 0.01933594 3.22265625 0.02929688 C9.69360545 0.12060475 16.07443231 0.54879077 22.5 1.3125 C21.26177975 4.54657299 19.85953664 7.53431637 18.1875 10.5625 C15.82758468 15.20575521 14.30190042 19.88790167 12.875 24.875 C12.66311035 25.61427734 12.4512207 26.35355469 12.23291016 27.11523438 C11.37322082 30.14751922 10.53420028 33.18281669 9.73046875 36.23046875 C8.16650448 41.69062472 6.20216741 44.07322912 1.5 47.3125 C5.31756824 48.68682457 8.57255329 47.99225039 12.5 47.3125 C12.45875 46.219375 12.4175 45.12625 12.375 44 C12.5 40.3125 12.5 40.3125 14.5 37.3125 C17.3203125 37.01953125 17.3203125 37.01953125 20.625 37.125 C22.26855469 37.16560547 22.26855469 37.16560547 23.9453125 37.20703125 C25.20988281 37.25923828 25.20988281 37.25923828 26.5 37.3125 C28.55450844 56.60056564 28.55450844 56.60056564 25.35302734 62.38476562 C22.01557725 66.2390037 17.83254525 68.70499578 13.5 71.3125 C12.0494171 72.54729371 10.60924604 73.79461024 9.1875 75.0625 C6.57977099 77.36083743 5.54567858 77.31456942 1.96484375 77.15234375 C-3.36130514 76.29520594 -8.48034728 74.71791927 -13.625 73.125 C-14.63530273 72.81691406 -15.64560547 72.50882812 -16.68652344 72.19140625 C-23.68946912 70.00704224 -30.33861182 67.44330996 -36.953125 64.28125 C-39.56177035 62.98151082 -39.56177035 62.98151082 -42.5 64.3125 C-44.18749704 66.85922255 -44.18749704 66.85922255 -45.6875 69.875 C-46.21730469 70.88691406 -46.74710938 71.89882812 -47.29296875 72.94140625 C-47.69128906 73.72386719 -48.08960938 74.50632812 -48.5 75.3125 C-47.38625 75.291875 -46.2725 75.27125 -45.125 75.25 C-41.5 75.3125 -41.5 75.3125 -39.5 76.3125 C-39.34102503 80.68431155 -39.43045755 84.80915051 -40.1875 89.125 C-40.31511719 89.85332031 -40.44273438 90.58164063 -40.57421875 91.33203125 C-41.93686076 94.24705023 -43.60664146 94.99549506 -46.5 96.3125 C-51.20607981 97.07256673 -56.30892211 97.47891485 -60.61328125 95.1875 C-62.25 93.8125 -62.25 93.8125 -64.5 91.3125 C-65.11875 91.951875 -65.7375 92.59125 -66.375 93.25 C-68.90454851 95.70515003 -69.80574285 96.25078825 -73.3125 96.5625 C-77.01664171 96.27197908 -78.71422807 95.779898 -81.5 93.3125 C-82.5625 89.9375 -82.5625 89.9375 -82.5 86.3125 C-80.5625 83.375 -80.5625 83.375 -78.5 81.3125 C-81.47 78.3425 -84.44 75.3725 -87.5 72.3125 C-87.005 71.3225 -87.005 71.3225 -86.5 70.3125 C-84.85 71.3025 -83.2 72.2925 -81.5 73.3125 C-81.995 72.36375 -82.49 71.415 -83 70.4375 C-84.5 67.3125 -84.5 67.3125 -84.5 65.3125 C-80.20761377 66.96341778 -77.6206085 70.05004566 -74.5 73.3125 C-74.31824219 72.74660156 -74.13648438 72.18070312 -73.94921875 71.59765625 C-73.69785156 70.86417969 -73.44648437 70.13070312 -73.1875 69.375 C-72.94386719 68.64410156 -72.70023438 67.91320312 -72.44921875 67.16015625 C-71.5 65.3125 -71.5 65.3125 -68.5 64.3125 C-68.83 67.2825 -69.16 70.2525 -69.5 73.3125 C-69.01789063 72.8071875 -68.53578125 72.301875 -68.0390625 71.78125 C-67.40742187 71.1315625 -66.77578125 70.481875 -66.125 69.8125 C-65.18527344 68.83796875 -65.18527344 68.83796875 -64.2265625 67.84375 C-62.5 66.3125 -62.5 66.3125 -60.5 66.3125 C-63.16666667 71.64583333 -65.83333333 76.97916667 -68.5 82.3125 C-67.015 83.3025 -67.015 83.3025 -65.5 84.3125 C-65.54125 83.19875 -65.5825 82.085 -65.625 80.9375 C-65.5 77.3125 -65.5 77.3125 -63.5 75.3125 C-58.83027294 74.77121533 -54.04647898 75.1392151 -49.5 76.3125 C-49.54125 75.46816406 -49.5825 74.62382812 -49.625 73.75390625 C-49.38026562 67.01606284 -46.68566709 60.64367103 -44.5 54.3125 C-44.23719238 53.54518555 -43.97438477 52.77787109 -43.70361328 51.98730469 C-39.88133775 41.00250572 -35.37387862 30.2799109 -30.51974487 19.71395874 C-29.92894328 18.41715337 -29.34919061 17.11525033 -28.78128052 15.80825806 C-23.69255099 4.16460565 -23.69255099 4.16460565 -17.8359375 1.4921875 C-11.96072369 -0.1927228 -6.06637214 -0.16544651 0 0 Z " fill="#F0F0F0" transform="translate(114.5,136.6875)"/>
<path d="M0 0 C2.97176035 4.64337555 3.52296513 8.4565696 3 14 C2 16.4375 2 16.4375 1 18 C0.195625 17.979375 -0.60875 17.95875 -1.4375 17.9375 C-3.93354885 17.70366379 -3.93354885 17.70366379 -5 19 C-4.38253906 19.05542969 -3.76507813 19.11085938 -3.12890625 19.16796875 C-1 20 -1 20 0.16015625 22.36328125 C0.60681641 23.82314453 0.60681641 23.82314453 1.0625 25.3125 C2.24926383 29.12746183 3.30216593 32.01943353 6 35 C9.23912477 36.19316447 12.6478786 36.48615558 16.0625 36.9375 C17.41891602 37.16276367 17.41891602 37.16276367 18.80273438 37.39257812 C25.54149023 38.34149514 30.66864593 37.43566377 37 35 C36.42655063 37.86724686 36.1385485 38.8614515 34 41 C34.33 41.66 34.66 42.32 35 43 C32.03 43 29.06 43 26 43 C26.2165625 44.01320313 26.2165625 44.01320313 26.4375 45.046875 C26.7159375 46.38492188 26.7159375 46.38492188 27 47.75 C27.185625 48.63171875 27.37125 49.5134375 27.5625 50.421875 C28 53 28 53 28 57 C19.37603795 57.48661855 12.76199333 56.92480024 5 53 C5.15839355 53.56509277 5.31678711 54.13018555 5.47998047 54.71240234 C6.01104644 57.04859398 6.1836254 59.2112051 6.3203125 61.6015625 C7.03705277 70.00443582 9.04376909 78.15982649 10.875 86.375 C11.23106728 87.99726458 11.58653954 89.61965988 11.94140625 91.2421875 C13.48023343 98.25546068 15.05462219 105.25765852 16.703125 112.24609375 C17.89447133 117.3587868 18.64038515 122.41654857 19.1796875 127.63671875 C19.77456334 130.20776043 19.77456334 130.20776043 22.26953125 131.23046875 C23.17058594 131.48441406 24.07164062 131.73835937 25 132 C25.81082031 132.28101563 26.62164062 132.56203125 27.45703125 132.8515625 C28.23433594 133.10679687 29.01164062 133.36203125 29.8125 133.625 C30.60269531 133.88539063 31.39289063 134.14578125 32.20703125 134.4140625 C32.79871094 134.60742188 33.39039063 134.80078125 34 135 C34 135.99 34 136.98 34 138 C26.74 138 19.48 138 12 138 C11.5978125 135.339375 11.5978125 135.339375 11.1875 132.625 C10.24293071 126.90322058 8.7914172 121.50559928 7 116 C6.16190796 116.04133057 6.16190796 116.04133057 5.30688477 116.08349609 C0.1341209 116.22185257 -4.6859889 115.81412599 -9.78515625 114.9140625 C-10.97560547 114.70652344 -12.16605469 114.49898438 -13.39257812 114.28515625 C-15.84715918 113.84361905 -18.29784874 113.37989632 -20.74414062 112.89453125 C-26.98222271 111.84639822 -30.95180918 111.29264714 -36.37109375 114.8984375 C-37.61032114 115.89662974 -38.83256447 116.91871994 -40 118 C-39.85618896 118.71905518 -39.71237793 119.43811035 -39.56420898 120.17895508 C-38.70947266 124.45263672 -37.85473633 128.72631836 -37 133 C-40.01735794 132.66700329 -40.98855941 132.01183726 -43.140625 129.78515625 C-43.83671875 128.88667969 -44.5328125 127.98820313 -45.25 127.0625 C-45.95640625 126.16660156 -46.6628125 125.27070313 -47.390625 124.34765625 C-49 122 -49 122 -49 120 C-49.66 120 -50.32 120 -51 120 C-51 119.34 -51 118.68 -51 118 C-51.66 118 -52.32 118 -53 118 C-51.51120605 113.70651034 -48.41109719 112.12664505 -44.6875 109.9375 C-38.14204731 105.9312831 -32.40182019 101.34147806 -26.64453125 96.28515625 C-24 94 -24 94 -21 92 C-20.49095616 89.5842887 -20.49095616 89.5842887 -20.48828125 86.7734375 C-20.45283203 85.7421875 -20.41738281 84.7109375 -20.38085938 83.6484375 C-20.35830078 82.56820312 -20.33574219 81.48796875 -20.3125 80.375 C-20.27833984 79.28703125 -20.24417969 78.1990625 -20.20898438 77.078125 C-20.12632479 74.38578433 -20.06149158 71.69290729 -20 69 C-25.94 69.495 -25.94 69.495 -32 70 C-32.144375 71.093125 -32.28875 72.18625 -32.4375 73.3125 C-33 77 -33 77 -34 80 C-39.445 80.495 -39.445 80.495 -45 81 C-45 80.01 -45 79.02 -45 78 C-43.63875 77.13375 -43.63875 77.13375 -42.25 76.25 C-37.29414344 72.37352204 -36.86334092 65.86389689 -35.50634766 60.05371094 C-31.93830894 45.58199364 -25.9776157 30.95538445 -14.5625 20.9375 C-11.61150972 18.2177751 -11.61150972 18.2177751 -12.0625 14.5625 C-12.371875 13.386875 -12.68125 12.21125 -13 11 C-14.30562347 4.5806846 -14.30562347 4.5806846 -12.75 1.625 C-9.12508652 -1.74099109 -4.47239591 -1.65851348 0 0 Z " fill="#3D4182" transform="translate(161,105)"/>
<path d="M0 0 C6.87653469 0.69677794 13.47399169 2.12596256 20.1875 3.75 C21.25419922 3.98976562 22.32089844 4.22953125 23.41992188 4.4765625 C29.32392013 5.90917746 33.105902 7.04814902 37 12 C41.29773491 16.11087687 44.02420298 17.64145218 50 18 C49.34 16.35 48.68 14.7 48 13 C55.42492912 19.97218954 63.51410407 31.16916562 64.16796875 41.70703125 C64.18503818 44.1479598 64.13482116 46.56323244 64 49 C63.32195312 49.01417969 62.64390625 49.02835938 61.9453125 49.04296875 C55.38911035 49.37895141 50.7138074 50.71204158 44.99609375 53.94140625 C43 55 43 55 41 55 C40.75523926 55.6384082 40.51047852 56.27681641 40.25830078 56.93457031 C39 59 39 59 37.12060547 59.72949219 C36.37697754 59.83422852 35.63334961 59.93896484 34.8671875 60.046875 C34.06152344 60.16933594 33.25585938 60.29179687 32.42578125 60.41796875 C31.58402344 60.52753906 30.74226563 60.63710937 29.875 60.75 C28.60076172 60.93755859 28.60076172 60.93755859 27.30078125 61.12890625 C25.20280688 61.43535194 23.10163818 61.71978158 21 62 C21.99 62.495 21.99 62.495 23 63 C21.2703384 67.20953787 18.31793255 70.35143576 15.375 73.75 C14.859375 74.35199219 14.34375 74.95398438 13.8125 75.57421875 C12.54530865 77.05260866 11.27314225 78.52673171 10 80 C8.515 79.505 8.515 79.505 7 79 C7.4912183 76.21642962 8.09141873 73.76637436 9.125 71.125 C10.24918826 67.93601214 10.24918826 67.93601214 9.4375 64.3125 C9 61 9 61 10.4375 59.0625 C10.953125 58.711875 11.46875 58.36125 12 58 C10.62237242 54.92777608 9.0251394 52.74566426 6.69921875 50.3203125 C6.05146484 49.63839844 5.40371094 48.95648438 4.73632812 48.25390625 C3.7221582 47.20009766 3.7221582 47.20009766 2.6875 46.125 C0.11020797 43.43021745 -2.45507511 40.72538637 -5 38 C-5.51699463 37.45287354 -6.03398926 36.90574707 -6.56665039 36.34204102 C-9.4217885 33.16267623 -10.64148153 30.96296175 -10.8125 26.6875 C-10.85890625 25.74648437 -10.9053125 24.80546875 -10.953125 23.8359375 C-10.96859375 22.90007812 -10.9840625 21.96421875 -11 21 C-11.01546875 20.10539062 -11.0309375 19.21078125 -11.046875 18.2890625 C-11.06010131 16.19269183 -11.0343628 14.09613075 -11 12 C-7.3533653 12.5988158 -7.07498929 12.89866313 -4.6875 16.125 C-2.64540669 19.96286409 -2.96586041 22.77726335 -4 27 C-3.319375 26.814375 -2.63875 26.62875 -1.9375 26.4375 C1.57232191 25.91476057 4.52188063 26.38621423 8 27 C7.195625 26.195625 6.39125 25.39125 5.5625 24.5625 C1.86727972 20.86727972 1.69009526 19.67104072 0.9375 14.375 C0.76089844 13.16585937 0.58429688 11.95671875 0.40234375 10.7109375 C0.01153384 7.10638011 -0.06983746 3.62223645 0 0 Z " fill="#F0F0F0" transform="translate(266,158)"/>
<path d="M0 0 C1.65 0 3.3 0 5 0 C5.495 3.465 5.495 3.465 6 7 C11.94 7 17.88 7 24 7 C24.01675781 8.30453125 24.03351563 9.6090625 24.05078125 10.953125 C24.43375765 20.77689301 25.06187552 27.93424218 32.39111328 34.87695312 C33.3958474 35.78648124 34.40953917 36.68620521 35.43164062 37.57617188 C38.22063893 40.10815166 40.67774266 42.94587566 43.1875 45.75 C44.11710785 46.76688986 45.04796576 47.78263936 45.98046875 48.796875 C46.64691406 49.52390625 47.31335938 50.2509375 48 51 C46.55421239 54.1563977 44.7809434 56.7213879 42.625 59.4375 C42.00753906 60.21867187 41.39007813 60.99984375 40.75390625 61.8046875 C40.17511719 62.52914062 39.59632813 63.25359375 39 64 C38.195625 65.010625 37.39125 66.02125 36.5625 67.0625 C36.046875 67.701875 35.53125 68.34125 35 69 C31.69530043 67.62823791 30.55667882 66.43518378 28.8125 63.375 C27.09137723 61.1931042 25.83650202 60.13952254 23.06494141 59.67724609 C18.03017464 59.37447748 13.02584135 59.64740757 8 60 C7.90912109 60.90492188 7.90912109 60.90492188 7.81640625 61.828125 C7.73261719 62.62734375 7.64882812 63.4265625 7.5625 64.25 C7.48128906 65.03890625 7.40007812 65.8278125 7.31640625 66.640625 C7 69 7 69 6 73 C0.72 72.67 -4.56 72.34 -10 72 C-9.505 72.99 -9.505 72.99 -9 74 C-9 75.98 -9 77.96 -9 80 C-15.93 80 -22.86 80 -30 80 C-29.67 78.68 -29.34 77.36 -29 76 C-26.21448678 74.73065221 -23.407367 73.97326058 -20.46875 73.125 C-19.6540625 72.75375 -18.839375 72.3825 -18 72 C-17.38438924 70.13727914 -17.38438924 70.13727914 -17 68 C-16.54634164 66.66716792 -16.0821231 65.33789992 -15.609375 64.01171875 C-13.71155691 58.3722581 -12.49071771 52.62576962 -11.25 46.8125 C-10.7318352 44.43459766 -10.21224614 42.05700534 -9.69140625 39.6796875 C-9.28365967 37.81715332 -9.28365967 37.81715332 -8.86767578 35.91699219 C-7.50837524 29.75179482 -6.08669581 23.6009317 -4.65588379 17.45199585 C-4.34434794 16.11209534 -4.03387729 14.7719467 -3.7244873 13.43154907 C-3.2915689 11.55663123 -2.85485608 9.68259074 -2.41796875 7.80859375 C-2.16813232 6.73407959 -1.9182959 5.65956543 -1.66088867 4.55249023 C-1 2 -1 2 0 0 Z " fill="#8AC5CB" transform="translate(231,163)"/>
<path d="M0 0 C3.6875 0.3125 3.6875 0.3125 7 1 C8.1875 3.75 8.1875 3.75 9 7 C7.8125 9.375 7.8125 9.375 6 11 C5.01 11 4.02 11 3 11 C2.855625 12.051875 2.71125 13.10375 2.5625 14.1875 C2.12450509 17.15613214 1.603567 20.06331688 1 23 C2.01320313 22.73123047 2.01320313 22.73123047 3.046875 22.45703125 C3.93890625 22.24433594 4.8309375 22.03164062 5.75 21.8125 C6.63171875 21.59207031 7.5134375 21.37164062 8.421875 21.14453125 C11 21 11 21 13.328125 22.44921875 C14.15570313 23.21685547 14.15570313 23.21685547 15 24 C14.125 30.75 14.125 30.75 13 33 C12.34 33 11.68 33 11 33 C11.83144531 34.61068359 11.83144531 34.61068359 12.6796875 36.25390625 C13.41178258 37.68993891 14.14353523 39.12614618 14.875 40.5625 C15.23980469 41.26697266 15.60460937 41.97144531 15.98046875 42.69726562 C20.59948875 51.80933234 21.67887456 60.64848313 22.50390625 70.7265625 C23.13471936 77.2678519 23.13471936 77.2678519 27.109375 82.2109375 C28.06328125 82.80132812 29.0171875 83.39171875 30 84 C29.67 84.66 29.34 85.32 29 86 C25.04 85.67 21.08 85.34 17 85 C17.0825 83.989375 17.165 82.97875 17.25 81.9375 C16.96856497 77.50489829 16.25863975 74.1047084 13 71 C9.42300342 69.97881536 5.95066477 70.02061498 2.25 70.0625 C1.26644531 70.04638672 0.28289062 70.03027344 -0.73046875 70.01367188 C-3.15505929 69.9783623 -5.57540513 69.97491579 -8 70 C-8.33 67.69 -8.66 65.38 -9 63 C-16.06527019 62.55263745 -16.06527019 62.55263745 -22.75 64.5 C-26.18931231 66.08737491 -28.26380791 66.43444094 -32 66 C-32.66 65.34 -33.32 64.68 -34 64 C-33.85405329 59.76754545 -30.83487786 57.83487786 -28 55 C-27.17939639 53.79999386 -26.39477685 52.57487476 -25.640625 51.33203125 C-25.20782227 50.62481934 -24.77501953 49.91760742 -24.32910156 49.18896484 C-23.89049805 48.46660645 -23.45189453 47.74424805 -23 47 C-22.16810417 45.65405837 -21.3347953 44.30898897 -20.5 42.96484375 C-20.0875 42.30033203 -19.675 41.63582031 -19.25 40.95117188 C-18.8375 40.28666016 -18.425 39.62214844 -18 38.9375 C-17.5875 38.26912109 -17.175 37.60074219 -16.75 36.91210938 C-9.90231362 25.90231362 -9.90231362 25.90231362 -7 23 C-8.65 23 -10.3 23 -12 23 C-13.96543717 19.06912566 -13.32896043 14.295106 -13 10 C-11.9375 6.9375 -11.9375 6.9375 -10 5 C-7.68970915 4.25740651 -5.354248 3.588562 -3 3 C-2.505 2.443125 -2.01 1.88625 -1.5 1.3125 C-1.005 0.879375 -0.51 0.44625 0 0 Z " fill="#FEA434" transform="translate(245,100)"/>
<path d="M0 0 C2.97176035 4.64337555 3.52296513 8.4565696 3 14 C2 16.4375 2 16.4375 1 18 C0.195625 17.979375 -0.60875 17.95875 -1.4375 17.9375 C-3.93354885 17.70366379 -3.93354885 17.70366379 -5 19 C-4.38253906 19.05542969 -3.76507813 19.11085938 -3.12890625 19.16796875 C-1 20 -1 20 0.16015625 22.36328125 C0.60681641 23.82314453 0.60681641 23.82314453 1.0625 25.3125 C2.24926383 29.12746183 3.30216593 32.01943353 6 35 C9.23912477 36.19316447 12.6478786 36.48615558 16.0625 36.9375 C16.96677734 37.08767578 17.87105469 37.23785156 18.80273438 37.39257812 C25.54149023 38.34149514 30.66864593 37.43566377 37 35 C36.42655063 37.86724686 36.1385485 38.8614515 34 41 C34.33 41.66 34.66 42.32 35 43 C32.03 43 29.06 43 26 43 C26.2165625 44.01320313 26.2165625 44.01320313 26.4375 45.046875 C26.7159375 46.38492188 26.7159375 46.38492188 27 47.75 C27.185625 48.63171875 27.37125 49.5134375 27.5625 50.421875 C28 53 28 53 28 57 C19.37603795 57.48661855 12.76199333 56.92480024 5 53 C5.495 54.98 5.495 54.98 6 57 C-2.25 57 -10.5 57 -19 57 C-19 60.96 -19 64.92 -19 69 C-25.435 69.495 -25.435 69.495 -32 70 C-32.144375 71.093125 -32.28875 72.18625 -32.4375 73.3125 C-33 77 -33 77 -34 80 C-39.445 80.495 -39.445 80.495 -45 81 C-45 80.01 -45 79.02 -45 78 C-44.0925 77.4225 -43.185 76.845 -42.25 76.25 C-37.29414344 72.37352204 -36.86334092 65.86389689 -35.50634766 60.05371094 C-31.93830894 45.58199364 -25.9776157 30.95538445 -14.5625 20.9375 C-11.61150972 18.2177751 -11.61150972 18.2177751 -12.0625 14.5625 C-12.371875 13.386875 -12.68125 12.21125 -13 11 C-14.30562347 4.5806846 -14.30562347 4.5806846 -12.75 1.625 C-9.12508652 -1.74099109 -4.47239591 -1.65851348 0 0 Z " fill="#FE4133" transform="translate(161,105)"/>
<path d="M0 0 C5.00326524 0.50032652 7.88365247 3.0356854 11.3125 6.5625 C15.73805148 13.27712983 17.20183986 19.7757484 15.65625 27.72265625 C13.90595735 34.46336665 11.17177046 41.88298727 4.9453125 45.62109375 C2.69483221 46.5947864 0.42234283 47.45670864 -1.875 48.3125 C-6.99142469 51.13175442 -10.32359556 54.87276534 -14.04296875 59.2890625 C-16.21402219 61.68694242 -17.83441959 63.22263986 -21.13671875 63.5078125 C-21.93722656 63.48460937 -22.73773438 63.46140625 -23.5625 63.4375 C-24.37074219 63.41945312 -25.17898438 63.40140625 -26.01171875 63.3828125 C-26.62660156 63.35960937 -27.24148438 63.33640625 -27.875 63.3125 C-28.205 62.6525 -28.535 61.9925 -28.875 61.3125 C-29.535 61.9725 -30.195 62.6325 -30.875 63.3125 C-33.76885391 59.80479829 -34.81719242 58.1796137 -35.125 53.5625 C-34.23949947 48.6969076 -31.15861817 45.4419692 -27.98046875 41.8046875 C-22.8025028 35.67566658 -20.93902415 30.54632978 -19.375 22.8125 C-17.46101213 13.34816 -14.83774408 7.11866756 -6.875 1.3125 C-4.52138651 0.35634452 -2.54005647 0.27609309 0 0 Z " fill="#89C4CC" transform="translate(365.875,118.6875)"/>
<path d="M0 0 C-0.45402726 14.48346957 -4.12349168 23.90469979 -14.25 34.3125 C-17.01152805 36.00707403 -19.22743554 36.62834043 -22.32421875 37.5 C-27.84112035 39.49062993 -29.86129247 41.69104149 -32.37060547 46.90356445 C-32.76393066 47.82226318 -33.15725586 48.74096191 -33.5625 49.6875 C-34.0073877 50.65067139 -34.45227539 51.61384277 -34.91064453 52.60620117 C-36.32448866 55.71780691 -37.66964616 58.85186372 -39 62 C-39.4532666 63.05735352 -39.9065332 64.11470703 -40.37353516 65.20410156 C-46.88875567 80.52827318 -52.00148877 95.84530061 -56 112 C-57.65 112 -59.3 112 -61 112 C-61.11972168 111.46052734 -61.23944336 110.92105469 -61.36279297 110.36523438 C-61.71573371 108.77580521 -62.0698337 107.18663322 -62.42480469 105.59765625 C-62.79178482 103.94032663 -63.15247204 102.2815824 -63.50488281 100.62109375 C-66.24021596 87.31551338 -66.24021596 87.31551338 -74.328125 76.69140625 C-76 75 -76 75 -76.421875 72.90234375 C-76.61265625 72.27457031 -76.8034375 71.64679688 -77 71 C-78.6476038 70.28752268 -80.31763529 69.62599617 -82 69 C-91.68512849 60.48882648 -96.04725771 49.5102514 -98 37 C-98.04376832 35.00047897 -98.05686323 32.99919148 -98 31 C-91.71638995 31.73500943 -87.76411761 38.37421691 -84 43 C-74.52356183 55.08639989 -68.08453363 69.97899425 -63.8515625 84.6875 C-62.9148791 87.23115399 -61.79272608 88.97403659 -60 91 C-57.94074861 91.72382467 -57.94074861 91.72382467 -56 92 C-55.67 92.33 -55.34 92.66 -55 93 C-54.66005005 92.10075806 -54.66005005 92.10075806 -54.31323242 91.18334961 C-53.27289569 88.43413449 -52.23021569 85.68581367 -51.1875 82.9375 C-50.83107422 81.99455078 -50.47464844 81.05160156 -50.10742188 80.08007812 C-49.75615234 79.15517578 -49.40488281 78.23027344 -49.04296875 77.27734375 C-48.6979834 76.35993408 -48.35299805 75.44252441 -47.99755859 74.49731445 C-47 72 -47 72 -45.23828125 68.6015625 C-43.38862991 63.22181949 -43.80302356 58.07430902 -44 52.4375 C-44.47556349 38.78090185 -44.47556349 38.78090185 -41 34 C-37.81610775 32.21702034 -35.37202384 31.1431677 -31.75390625 30.765625 C-29.20749167 30.47362468 -27.31486799 30.12119757 -25 29 C-23.16625992 26.48142333 -21.92071282 23.89538365 -20.5859375 21.08203125 C-17.43858868 14.9656317 -7.82371974 0 0 0 Z M-60 98 C-59 100 -59 100 -59 100 Z " fill="#AFD5D9" transform="translate(121,101)"/>
<path d="M0 0 C0.99 0.33 1.98 0.66 3 1 C2.34 4.63 1.68 8.26 1 12 C2.32 11.67 3.64 11.34 5 11 C5.495 12.98 5.495 12.98 6 15 C5.030625 15.268125 4.06125 15.53625 3.0625 15.8125 C2.051875 16.204375 1.04125 16.59625 0 17 C-0.495 18.485 -0.495 18.485 -1 20 C0.485 20.495 0.485 20.495 2 21 C1.505 22.485 1.505 22.485 1 24 C-0.65 24 -2.3 24 -4 24 C-4 24.66 -4 25.32 -4 26 C-3.34 26.33 -2.68 26.66 -2 27 C-2.495 28.485 -2.495 28.485 -3 30 C-4.98 30 -6.96 30 -9 30 C-9 32.83967231 -8.59732819 35.23735711 -8 38 C-10.64 37.67 -13.28 37.34 -16 37 C-16.495 37.99 -16.495 37.99 -17 39 C-16.01 39.495 -16.01 39.495 -15 40 C-15.33 41.65 -15.66 43.3 -16 45 C-18.31 44.34 -20.62 43.68 -23 43 C-23.33 43.33 -23.66 43.66 -24 44 C-23.01 44.99 -22.02 45.98 -21 47 C-21.495 47.99 -21.495 47.99 -22 49 C-24.31 48.67 -26.62 48.34 -29 48 C-29.96548612 49.2235563 -30.92205898 50.45414811 -31.875 51.6875 C-32.40867188 52.37199219 -32.94234375 53.05648437 -33.4921875 53.76171875 C-38.43874261 61.10466196 -39.63977144 69.66529524 -38.11236572 78.2376709 C-37.34378521 82.08946786 -36.49670264 85.92039396 -35.625 89.75 C-35.10573572 92.09925988 -34.59257003 94.44962508 -34.08676147 96.80181885 C-33.77290001 98.25408206 -33.45071296 99.70458165 -33.11856079 101.152771 C-32.15794654 105.5082331 -31.8515292 109.54587613 -32 114 C-33.32 113.67 -34.64 113.34 -36 113 C-37.32 104.09 -38.64 95.18 -40 86 C-41.98 85.67 -43.96 85.34 -46 85 C-55.19011013 79.52067317 -60.97165298 69.32326973 -64.1640625 59.37109375 C-67.49983992 45.17065808 -65.4995744 31.31973905 -64 17 C-59.90964165 20.53684656 -57.71116754 24.71404228 -55.25 29.4375 C-54.81824463 30.26064697 -54.38648926 31.08379395 -53.94165039 31.93188477 C-48.62619096 42.3332258 -43.68069097 53.58975561 -41 65 C-40.82984375 64.27554688 -40.6596875 63.55109375 -40.484375 62.8046875 C-38.26342588 53.94451815 -38.26342588 53.94451815 -35.6875 50.6875 C-33.57885012 48.02830512 -33.57885012 48.02830512 -34.75 44.625 C-35.1625 43.75875 -35.575 42.8925 -36 42 C-34.1875 41.375 -34.1875 41.375 -32 41 C-31.01 41.66 -30.02 42.32 -29 43 C-27.56911472 40.13822943 -28.40008303 38.06624227 -29 35 C-27.02 34.505 -27.02 34.505 -25 34 C-24.34 35.32 -23.68 36.64 -23 38 C-22.34 37.01 -21.68 36.02 -21 35 C-21.33 34.67 -21.66 34.34 -22 34 C-22.04063832 32.33382885 -22.042721 30.66611905 -22 29 C-20.0625 29.3125 -20.0625 29.3125 -18 30 C-17.505 31.485 -17.505 31.485 -17 33 C-16.34 31.68 -15.68 30.36 -15 29 C-15.66 28.01 -16.32 27.02 -17 26 C-17 25.01 -17 24.02 -17 23 C-16.01 22.67 -15.02 22.34 -14 22 C-13.01 23.65 -12.02 25.3 -11 27 C-10.01879536 23.94736336 -10.01879536 22.05263664 -11 19 C-9.35 19.33 -7.7 19.66 -6 20 C-5.67 19.34 -5.34 18.68 -5 18 C-5.66 18 -6.32 18 -7 18 C-7 16.68 -7 15.36 -7 14 C-5.68 14 -4.36 14 -3 14 C-2.67 13.01 -2.34 12.02 -2 11 C-2.66 10.34 -3.32 9.68 -4 9 C-4 8.01 -4 7.02 -4 6 C-3.01 6 -2.02 6 -1 6 C-1.020625 5.195625 -1.04125 4.39125 -1.0625 3.5625 C-1 1 -1 1 0 0 Z " fill="#88C4CB" transform="translate(93,30)"/>
<path d="M0 0 C0.66 0 1.32 0 2 0 C2.13575439 0.96824707 2.27150879 1.93649414 2.41137695 2.93408203 C2.92083343 6.54745819 3.4441035 10.15872426 3.97143555 13.76953125 C4.19717871 15.32856489 4.41923967 16.88813655 4.63745117 18.44824219 C4.95290353 20.69880431 5.28182416 22.94705862 5.61328125 25.1953125 C5.70716629 25.8861795 5.80105133 26.57704651 5.89778137 27.28884888 C6.56738944 31.71525024 7.98263916 35.04101541 10 39 C10.95919855 45.72597934 9.64385513 52.72592334 8.5625 59.375 C8.42779297 60.25027344 8.29308594 61.12554687 8.15429688 62.02734375 C7.57162678 65.75074774 6.91559484 69.33762066 6 73 C0.72 72.67 -4.56 72.34 -10 72 C-9.505 72.99 -9.505 72.99 -9 74 C-9 75.98 -9 77.96 -9 80 C-15.93 80 -22.86 80 -30 80 C-29.67 78.68 -29.34 77.36 -29 76 C-26.21448678 74.73065221 -23.407367 73.97326058 -20.46875 73.125 C-19.6540625 72.75375 -18.839375 72.3825 -18 72 C-17.38438924 70.13727914 -17.38438924 70.13727914 -17 68 C-16.54634164 66.66716792 -16.0821231 65.33789992 -15.609375 64.01171875 C-13.71155691 58.3722581 -12.49071771 52.62576962 -11.25 46.8125 C-10.7318352 44.43459766 -10.21224614 42.05700534 -9.69140625 39.6796875 C-9.28365967 37.81715332 -9.28365967 37.81715332 -8.86767578 35.91699219 C-7.50837524 29.75179482 -6.08669581 23.6009317 -4.65588379 17.45199585 C-4.34434794 16.11209534 -4.03387729 14.7719467 -3.7244873 13.43154907 C-3.2915689 11.55663123 -2.85485608 9.68259074 -2.41796875 7.80859375 C-2.16813232 6.73407959 -1.9182959 5.65956543 -1.66088867 4.55249023 C-1 2 -1 2 0 0 Z " fill="#58929D" transform="translate(231,163)"/>
<path d="M0 0 C2.0625 0.4375 2.0625 0.4375 4 1 C4.625 2.875 4.625 2.875 5 5 C3 7 3 7 0.1015625 7.8828125 C-13.92923961 12.93672863 -24.67115051 41.22617535 -31 54 C-29.329375 53.9690625 -29.329375 53.9690625 -27.625 53.9375 C-24 54 -24 54 -22 55 C-21.84102503 59.37181155 -21.93045755 63.49665051 -22.6875 67.8125 C-22.81511719 68.54082031 -22.94273438 69.26914063 -23.07421875 70.01953125 C-24.43686076 72.93455023 -26.10664146 73.68299506 -29 75 C-33.70607981 75.76006673 -38.80892211 76.16641485 -43.11328125 73.875 C-44.75 72.5 -44.75 72.5 -47 70 C-47.61875 70.639375 -48.2375 71.27875 -48.875 71.9375 C-51.40454851 74.39265003 -52.30574285 74.93828825 -55.8125 75.25 C-59.51664171 74.95947908 -61.21422807 74.467398 -64 72 C-65.0625 68.625 -65.0625 68.625 -65 65 C-63.0625 62.0625 -63.0625 62.0625 -61 60 C-63.97 57.03 -66.94 54.06 -70 51 C-69.67 50.34 -69.34 49.68 -69 49 C-67.35 49.99 -65.7 50.98 -64 52 C-64.495 51.05125 -64.99 50.1025 -65.5 49.125 C-67 46 -67 46 -67 44 C-62.70761377 45.65091778 -60.1206085 48.73754566 -57 52 C-56.81824219 51.43410156 -56.63648438 50.86820313 -56.44921875 50.28515625 C-56.19785156 49.55167969 -55.94648437 48.81820312 -55.6875 48.0625 C-55.44386719 47.33160156 -55.20023438 46.60070312 -54.94921875 45.84765625 C-54 44 -54 44 -51 43 C-51.33 45.97 -51.66 48.94 -52 52 C-51.51789062 51.4946875 -51.03578125 50.989375 -50.5390625 50.46875 C-49.90742187 49.8190625 -49.27578125 49.169375 -48.625 48.5 C-47.68527344 47.52546875 -47.68527344 47.52546875 -46.7265625 46.53125 C-45 45 -45 45 -43 45 C-45.66666667 50.33333333 -48.33333333 55.66666667 -51 61 C-50.01 61.66 -49.02 62.32 -48 63 C-48.04125 61.88625 -48.0825 60.7725 -48.125 59.625 C-48 56 -48 56 -46 54 C-41.33027294 53.45871533 -36.54647898 53.8267151 -32 55 C-32.04125 54.15179688 -32.0825 53.30359375 -32.125 52.4296875 C-31.98773326 48.66343143 -31.16762163 45.70084124 -30 42.125 C-29.62875 40.97257812 -29.2575 39.82015625 -28.875 38.6328125 C-28.441875 37.32957031 -28.441875 37.32957031 -28 36 C-27.34 36 -26.68 36 -26 36 C-24.47228557 33.6293037 -23.03937796 31.24967537 -21.625 28.8125 C-17.71593682 22.27479053 -13.41296803 16.71874712 -8.02392578 11.33911133 C-4.8502989 8.13412029 -2.85020847 5.10496413 -1 1 C-0.67 0.67 -0.34 0.34 0 0 Z " fill="#C0DEE2" transform="translate(97,158)"/>
<path d="M0 0 C4.40151581 2.33021425 6.9335661 4.47352574 9 9 C9.47254965 10.60003655 9.92936304 12.20476002 10.375 13.8125 C12.47604829 21.09613408 15.91677015 25.93585148 21.25 31.25 C25.37672882 35.72254408 25.64699425 38.99540956 25.73046875 44.9296875 C26.11723671 49.33547905 27.84827557 52.7268639 29.84375 56.625 C31.69457774 60.42670022 32.12436091 63.54345787 32.0625 67.75 C32.05347656 68.54921875 32.04445313 69.3484375 32.03515625 70.171875 C32.02355469 70.77515625 32.01195312 71.3784375 32 72 C31.01 71.67 30.02 71.34 29 71 C28.91363281 70.24976562 28.82726562 69.49953125 28.73828125 68.7265625 C27.7650561 61.63719768 26.30917337 53.30917337 21 48 C20.113125 48.061875 19.22625 48.12375 18.3125 48.1875 C14.21232014 47.95541435 11.76580174 46.96853066 9 44 C7.99405498 42.21348562 7.03992463 40.3972948 6.125 38.5625 C3.69407047 33.75806447 1.60524906 31.53793784 -3.10546875 29.04296875 C-7.28424281 26.74248901 -10.22526057 23.37821181 -12 19 C-12.56064092 14.11441485 -12.67274127 9.53769432 -10.6875 5 C-10.130625 4.34 -9.57375 3.68 -9 3 C-8.3503125 2.1028125 -8.3503125 2.1028125 -7.6875 1.1875 C-5.01686918 -0.6918328 -3.18876492 -0.43767362 0 0 Z " fill="#F2F2F2" transform="translate(346,25)"/>
<path d="M0 0 C3.6875 0.3125 3.6875 0.3125 7 1 C8.1875 3.75 8.1875 3.75 9 7 C7.8125 9.375 7.8125 9.375 6 11 C5.01 11 4.02 11 3 11 C2.814375 12.546875 2.814375 12.546875 2.625 14.125 C2.06110186 17.62116846 1.21317941 20.68397627 0 24 C-0.66 24 -1.32 24 -2 24 C-5.10809308 36.92146312 -7.28470538 49.82341857 -9 63 C-10.01755371 62.97389648 -10.01755371 62.97389648 -11.05566406 62.94726562 C-12.39709473 62.92696289 -12.39709473 62.92696289 -13.765625 62.90625 C-14.65024414 62.88884766 -15.53486328 62.87144531 -16.44628906 62.85351562 C-18.96127742 62.99777882 -20.50090413 63.42374553 -22.75 64.5 C-26.18931231 66.08737491 -28.26380791 66.43444094 -32 66 C-32.66 65.34 -33.32 64.68 -34 64 C-33.85405329 59.76754545 -30.83487786 57.83487786 -28 55 C-27.17939639 53.79999386 -26.39477685 52.57487476 -25.640625 51.33203125 C-25.20782227 50.62481934 -24.77501953 49.91760742 -24.32910156 49.18896484 C-23.89049805 48.46660645 -23.45189453 47.74424805 -23 47 C-22.16810417 45.65405837 -21.3347953 44.30898897 -20.5 42.96484375 C-20.0875 42.30033203 -19.675 41.63582031 -19.25 40.95117188 C-18.8375 40.28666016 -18.425 39.62214844 -18 38.9375 C-17.5875 38.26912109 -17.175 37.60074219 -16.75 36.91210938 C-9.90231362 25.90231362 -9.90231362 25.90231362 -7 23 C-8.65 23 -10.3 23 -12 23 C-13.96543717 19.06912566 -13.32896043 14.295106 -13 10 C-11.9375 6.9375 -11.9375 6.9375 -10 5 C-7.68970915 4.25740651 -5.354248 3.588562 -3 3 C-2.505 2.443125 -2.01 1.88625 -1.5 1.3125 C-1.005 0.879375 -0.51 0.44625 0 0 Z " fill="#C9CCD0" transform="translate(245,100)"/>
<path d="M0 0 C0.66 0 1.32 0 2 0 C3.86650938 3.29460031 4.61638861 6.40182217 5.33203125 10.109375 C5.57074951 11.32778076 5.80946777 12.54618652 6.05541992 13.80151367 C6.17887787 14.44559174 6.30233582 15.0896698 6.42953491 15.75326538 C6.94761246 18.45446035 7.47909125 21.15296584 8.00965881 23.85173035 C8.27996324 25.22758733 8.54960303 26.60357505 8.81858826 27.97969055 C10.07166274 34.38987031 11.36579086 40.79110582 12.6875 47.1875 C12.97234253 48.58983887 12.97234253 48.58983887 13.26293945 50.02050781 C14.42835889 55.64736981 15.82505269 61.16124685 17.42504883 66.6809082 C18 69 18 69 18 72 C22.58335908 73.92205381 27.27934033 75.45730076 32 77 C32 77.99 32 78.98 32 80 C24.74 80 17.48 80 10 80 C9.773125 78.35 9.54625 76.7 9.3125 75 C7.00741971 61.40634158 1.81922879 48.48115223 -2.96508789 35.60473633 C-3.34270264 34.57759521 -3.72031738 33.5504541 -4.109375 32.4921875 C-4.44936523 31.57808105 -4.78935547 30.66397461 -5.13964844 29.72216797 C-6.80251836 24.46081734 -7.37563026 20.89464136 -5.25 15.75 C-3.20246767 10.56718378 -1.53332693 5.35502815 0 0 Z " fill="#1B1A49" transform="translate(163,163)"/>
<path d="M0 0 C2.91672726 3.52118061 3.10759486 5.60073966 3.4375 10.1171875 C4.16058109 17.76172004 6.13046964 23.50039196 10.375 29.8671875 C10.359375 32.28515625 10.359375 32.28515625 10.125 35.0546875 C9.98608358 40.59672152 11.39487702 42.99134128 14.97265625 47.07421875 C16.89415115 49.530949 17.22155403 51.79826814 17.375 54.8671875 C14.44184044 51.08623764 11.82881343 47.10364913 9.1875 43.1171875 C8.72408203 42.41980469 8.26066406 41.72242188 7.78320312 41.00390625 C6.64608336 39.29236517 5.51039838 37.57987099 4.375 35.8671875 C4.705 37.1871875 5.035 38.5071875 5.375 39.8671875 C1.66885683 40.40766671 -0.4787408 40.59387258 -3.6953125 38.5546875 C-12.30727666 31.21978267 -16.85231296 23.64500425 -17.98046875 12.2890625 C-18.32930825 3.275804 -18.32930825 3.275804 -16.640625 -0.1015625 C-11.33059283 -5.73937443 -5.63838289 -4.5811861 0 0 Z " fill="#55919D" transform="translate(310.625,136.1328125)"/>
<path d="M0 0 C1.32 0 2.64 0 4 0 C4.33 2.64 4.66 5.28 5 8 C6.32 8 7.64 8 9 8 C8.67 9.65 8.34 11.3 8 13 C7.01 13.33 6.02 13.66 5 14 C5.33 15.98 5.66 17.96 6 20 C9.465 19.505 9.465 19.505 13 19 C12.25 23.75 12.25 23.75 10 26 C10.66 26.66 11.32 27.32 12 28 C12.99 27.01 13.98 26.02 15 25 C16.32 25.66 17.64 26.32 19 27 C17.84826645 29.46800047 16.95216435 31.04783565 15 33 C15.99 33.99 16.98 34.98 18 36 C18.99 34.35 19.98 32.7 21 31 C22.65 31.33 24.3 31.66 26 32 C26.36923077 36.55384615 26.36923077 36.55384615 24.5 38.8125 C24.005 39.204375 23.51 39.59625 23 40 C24.36983503 43.16115776 24.9890638 43.9927092 28 46 C28 44.35 28 42.7 28 41 C29.32 40.34 30.64 39.68 32 39 C32.66 39.66 33.32 40.32 34 41 C33.73775349 43.01055661 33.39764263 45.01178687 33 47 C32.56613908 50.87797662 32.56613908 50.87797662 34.5 52.75 C34.995 53.1625 35.49 53.575 36 54 C36.33 51.69 36.66 49.38 37 47 C37.99 46.67 38.98 46.34 40 46 C41.5625 47.125 41.5625 47.125 43 49 C42.73066742 52.23199091 42.02471429 54.92585714 41 58 C41.99 58.99 42.98 59.98 44 61 C44.226875 60.360625 44.45375 59.72125 44.6875 59.0625 C46 57 46 57 48.625 56.25 C49.40875 56.1675 50.1925 56.085 51 56 C51.6875 58.3125 51.6875 58.3125 52 61 C50.5625 62.8125 50.5625 62.8125 49 64 C50.14394666 66.29894595 51.30196012 68.58950305 52.47265625 70.875 C52.99730469 71.90625 53.52195312 72.9375 54.0625 74 C54.58972656 75.03125 55.11695313 76.0625 55.66015625 77.125 C57.72004178 81.54504592 58.12049448 84.87846378 58.0625 89.75 C58.05347656 90.73484375 58.04445313 91.7196875 58.03515625 92.734375 C58.02355469 93.48203125 58.01195312 94.2296875 58 95 C57.01 95.495 57.01 95.495 56 96 C55.92523438 95.20078125 55.85046875 94.4015625 55.7734375 93.578125 C54.38660496 81.99399438 50.50410164 72.9197926 42.3203125 64.5234375 C41 63 41 63 41 61 C35.33189587 58.31614211 35.33189587 58.31614211 29.4375 58.9375 C28.633125 59.288125 27.82875 59.63875 27 60 C26.01 60 25.02 60 24 60 C24.49831724 56.31245243 25.10067643 54.39509338 28 52 C26.35 51.01 24.7 50.02 23 49 C22.608125 49.495 22.21625 49.99 21.8125 50.5 C19.44908285 52.45593143 17.98564997 52.24207973 15 52 C14.505 49.525 14.505 49.525 14 47 C15.65 46.01 17.3 45.02 19 44 C18.34 43.01 17.68 42.02 17 41 C14.56306689 40.63583953 14.56306689 40.63583953 11.875 40.8125 C10.96492188 40.83957031 10.05484375 40.86664063 9.1171875 40.89453125 C8.41851562 40.92933594 7.71984375 40.96414062 7 41 C7.33 39.35 7.66 37.7 8 36 C9.485 35.505 9.485 35.505 11 35 C10.34 34.01 9.68 33.02 9 32 C5.41642759 31.74984127 5.41642759 31.74984127 2 32 C1.67 30.68 1.34 29.36 1 28 C2.32 27.34 3.64 26.68 5 26 C4.67 24.35 4.34 22.7 4 21 C1.36 21 -1.28 21 -4 21 C-4.33 19.68 -4.66 18.36 -5 17 C-3.1875 15.9375 -3.1875 15.9375 -1 15 C-0.01 15.33 0.98 15.66 2 16 C1.855625 15.34773438 1.71125 14.69546875 1.5625 14.0234375 C0.55372706 9.27379823 -0.25715306 4.88590812 0 0 Z M19 37 C20 39 20 39 20 39 Z " fill="#F2F2F2" transform="translate(270,75)"/>
<path d="M0 0 C-0.46925285 17.22157961 -2.51140458 35.70975803 -13.40234375 49.81640625 C-15 51 -15 51 -20 52 C-20.33 61.9 -20.66 71.8 -21 82 C-21.99 81.67 -22.98 81.34 -24 81 C-23.64079248 54.75307796 -21.87731205 21.96608829 -3.421875 1.2265625 C-2 0 -2 0 0 0 Z " fill="#88C4CC" transform="translate(351,93)"/>
<path d="M0 0 C0.5880262 14.70065509 -0.18710696 27.15184025 -10 39 C-12.7516051 41.77825503 -15.23522257 43.74507419 -19 45 C-19.96837976 47.7515636 -19.96837976 47.7515636 -20.5625 51.0625 C-20.80742188 52.23296875 -21.05234375 53.4034375 -21.3046875 54.609375 C-21.53414063 55.72828125 -21.76359375 56.8471875 -22 58 C-22.38505844 59.60678708 -22.77863817 61.2116044 -23.1875 62.8125 C-23.455625 63.864375 -23.72375 64.91625 -24 66 C-26.2741114 62.5888329 -26.17329635 61.98365842 -25.6796875 58.09765625 C-25.55891846 57.13093994 -25.43814941 56.16422363 -25.3137207 55.16821289 C-25.16894287 54.14332764 -25.02416504 53.11844238 -24.875 52.0625 C-24.65686646 50.49133423 -24.65686646 50.49133423 -24.43432617 48.88842773 C-21.89910909 31.65404611 -14.43692836 15.0193335 -4 1 C-2 0 -2 0 0 0 Z " fill="#55909B" transform="translate(93,78)"/>
<path d="M0 0 C3.72748823 2.48499215 4.21503434 4.92029506 5.4375 9 C5.8659462 10.36408271 6.29694572 11.72736602 6.73046875 13.08984375 C6.9423584 13.75741699 7.15424805 14.42499023 7.37255859 15.11279297 C8.2150845 17.6469273 9.21650009 20.10089113 10.25 22.5625 C11.68534608 26.0293238 12.60425192 29.24039325 13 33 C4.78782965 33.34148211 -3.02618069 32.28332469 -11.125 31 C-12.98898438 30.71382812 -12.98898438 30.71382812 -14.890625 30.421875 C-17.92817806 29.95455914 -20.96450411 29.48046578 -24 29 C-22.87770177 25.6331053 -22.35699219 25.29241361 -19.5078125 23.44140625 C-18.80269531 22.97283203 -18.09757813 22.50425781 -17.37109375 22.02148438 C-16.62988281 21.54001953 -15.88867188 21.05855469 -15.125 20.5625 C-8.32368939 16.13387859 -4.53087096 13.1239021 -1.8125 5.25 C-1.46832031 4.26515625 -1.12414062 3.2803125 -0.76953125 2.265625 C-0.38861328 1.14414063 -0.38861328 1.14414063 0 0 Z " fill="#EDEDEE" transform="translate(155,188)"/>
<path d="M0 0 C1.00956529 2.0092798 2.00616486 4.01366682 2.9309082 6.0637207 C4.57715929 9.25473383 5.8492295 11.49331557 9.21240234 12.97412109 C11.87643263 13.57594294 14.46978667 13.92128284 17.1875 14.1875 C18.08275391 14.31962891 18.97800781 14.45175781 19.90039062 14.58789062 C26.54846799 15.39910007 31.76540932 14.36228919 38 12 C37.42655063 14.86724686 37.1385485 15.8614515 35 18 C35.495 18.99 35.495 18.99 36 20 C33.03 20 30.06 20 27 20 C27.144375 20.67546875 27.28875 21.3509375 27.4375 22.046875 C27.623125 22.93890625 27.80875 23.8309375 28 24.75 C28.185625 25.63171875 28.37125 26.5134375 28.5625 27.421875 C29 30 29 30 29 34 C21.06059149 34.44175998 13.75374824 34.73639487 7 30 C0.13176514 22.42858871 -0.17043148 9.71459464 0 0 Z " fill="#C21E19" transform="translate(160,128)"/>
<path d="M0 0 C-0.40982763 13.07350143 -3.10837502 22.23117435 -12 32 C-16.23598757 35.76532228 -18.61438057 37.1005531 -24.2265625 37.31640625 C-25.2578125 37.35830078 -26.2890625 37.40019531 -27.3515625 37.44335938 C-28.43179688 37.48267578 -29.51203125 37.52199219 -30.625 37.5625 C-31.71296875 37.60568359 -32.8009375 37.64886719 -33.921875 37.69335938 C-36.6144517 37.7996453 -39.30712253 37.90168057 -42 38 C-41.6875 36.1015625 -41.6875 36.1015625 -41 34 C-37.86302111 32.3008031 -35.29812524 31.13948659 -31.74609375 30.7578125 C-29.19963731 30.47343665 -27.31419098 30.12086966 -25 29 C-23.16625992 26.48142333 -21.92071282 23.89538365 -20.5859375 21.08203125 C-17.43858868 14.9656317 -7.82371974 0 0 0 Z " fill="#89C4CB" transform="translate(121,101)"/>
<path d="M0 0 C0.99 0.33 1.98 0.66 3 1 C2.34 4.63 1.68 8.26 1 12 C2.32 11.67 3.64 11.34 5 11 C5.495 12.98 5.495 12.98 6 15 C5.030625 15.268125 4.06125 15.53625 3.0625 15.8125 C2.051875 16.204375 1.04125 16.59625 0 17 C-0.495 18.485 -0.495 18.485 -1 20 C-0.01 20.33 0.98 20.66 2 21 C1.505 22.485 1.505 22.485 1 24 C-0.65 24 -2.3 24 -4 24 C-4 24.66 -4 25.32 -4 26 C-3.34 26.33 -2.68 26.66 -2 27 C-2.495 28.485 -2.495 28.485 -3 30 C-4.98 30 -6.96 30 -9 30 C-9 32.83967231 -8.59732819 35.23735711 -8 38 C-10.64 37.67 -13.28 37.34 -16 37 C-16.33 37.66 -16.66 38.32 -17 39 C-16.34 39.33 -15.68 39.66 -15 40 C-15.33 41.65 -15.66 43.3 -16 45 C-18.31 44.34 -20.62 43.68 -23 43 C-23.33 43.33 -23.66 43.66 -24 44 C-23.01 44.99 -22.02 45.98 -21 47 C-21.33 47.66 -21.66 48.32 -22 49 C-24.31 48.67 -26.62 48.34 -29 48 C-33.2021343 53.11327668 -35.9710013 57.68755959 -38 64 C-38.66 64 -39.32 64 -40 64 C-39.70039344 59.30616383 -38.81427601 56.44849959 -36.3125 52.4375 C-34.08856839 48.77486232 -34.08856839 48.77486232 -34.6875 44.4375 C-35.120625 43.633125 -35.55375 42.82875 -36 42 C-34.1875 41.375 -34.1875 41.375 -32 41 C-31.01 41.66 -30.02 42.32 -29 43 C-27.56911472 40.13822943 -28.40008303 38.06624227 -29 35 C-27.02 34.505 -27.02 34.505 -25 34 C-24.34 35.32 -23.68 36.64 -23 38 C-22.34 37.01 -21.68 36.02 -21 35 C-21.495 34.505 -21.495 34.505 -22 34 C-22.04063832 32.33382885 -22.042721 30.66611905 -22 29 C-20.0625 29.3125 -20.0625 29.3125 -18 30 C-17.67 30.99 -17.34 31.98 -17 33 C-16.34 31.68 -15.68 30.36 -15 29 C-15.66 28.01 -16.32 27.02 -17 26 C-17 25.01 -17 24.02 -17 23 C-16.01 22.67 -15.02 22.34 -14 22 C-13.01 23.65 -12.02 25.3 -11 27 C-10.01879536 23.94736336 -10.01879536 22.05263664 -11 19 C-9.35 19.33 -7.7 19.66 -6 20 C-5.67 19.34 -5.34 18.68 -5 18 C-5.66 18 -6.32 18 -7 18 C-7 16.68 -7 15.36 -7 14 C-5.68 14 -4.36 14 -3 14 C-2.67 13.01 -2.34 12.02 -2 11 C-2.66 10.34 -3.32 9.68 -4 9 C-4 8.01 -4 7.02 -4 6 C-3.01 6 -2.02 6 -1 6 C-1.020625 5.195625 -1.04125 4.39125 -1.0625 3.5625 C-1 1 -1 1 0 0 Z " fill="#C3DFE3" transform="translate(93,30)"/>
<path d="M0 0 C1.53445094 3.06890187 0.54984289 5.70094266 0 9 C0.48210938 8.4946875 0.96421875 7.989375 1.4609375 7.46875 C2.40839844 6.49421875 2.40839844 6.49421875 3.375 5.5 C4.31472656 4.52546875 4.31472656 4.52546875 5.2734375 3.53125 C7 2 7 2 9 2 C6.33333333 7.33333333 3.66666667 12.66666667 1 18 C1.65871094 18.58652344 2.31742188 19.17304688 2.99609375 19.77734375 C5 22 5 22 5.0625 25.5625 C4 29 4 29 1.8125 30.9375 C-2.51897673 32.57383565 -5.48102327 32.57383565 -9.8125 30.9375 C-12 29 -12 29 -13.0625 25.625 C-12.98829559 21.32114415 -11.98803047 19.98803047 -9 17 C-11.97 14.03 -14.94 11.06 -18 8 C-17.67 7.34 -17.34 6.68 -17 6 C-15.35 6.99 -13.7 7.98 -12 9 C-12.495 8.05125 -12.99 7.1025 -13.5 6.125 C-15 3 -15 3 -15 1 C-10.70761377 2.65091778 -8.1206085 5.73754566 -5 9 C-4.80664062 8.43410156 -4.61328125 7.86820313 -4.4140625 7.28515625 C-4.15367188 6.55167969 -3.89328125 5.81820312 -3.625 5.0625 C-3.36976562 4.33160156 -3.11453125 3.60070312 -2.8515625 2.84765625 C-2 1 -2 1 0 0 Z " fill="#F2F2F2" transform="translate(45,201)"/>
<path d="M0 0 C6.34531115 0.74222676 10.24194229 7.33453294 14 12 C16.94211455 15.81389451 19.86096194 19.67695912 22 24 C21.7109375 25.95703125 21.7109375 25.95703125 21 28 C20.93256652 30.08234592 20.91485528 32.16668557 20.9375 34.25 C20.94652344 35.32765625 20.95554687 36.4053125 20.96484375 37.515625 C20.97644531 38.33546875 20.98804687 39.1553125 21 40 C13.46325284 37.48775095 8.87226751 31.06292361 5.1875 24.25 C1.65733784 16.61721696 -0.23909549 8.4060941 0 0 Z " fill="#548F99" transform="translate(23,132)"/>
<path d="M0 0 C1.36350179 15.3684058 2.31349759 30.56895199 2 46 C-2.52282417 43.50565276 -3.43171517 39.71799532 -4.875 35.0625 C-7.03462157 28.45362228 -9.54571605 22.56891922 -12.99609375 16.515625 C-14.21934774 13.4503504 -14.11825274 12.08397056 -13 9 C-11.4765625 7.05078125 -11.4765625 7.05078125 -9.625 5.3125 C-9.01914062 4.73113281 -8.41328125 4.14976562 -7.7890625 3.55078125 C-5.08204809 1.20430806 -3.65954056 0 0 0 Z " fill="#F0F0F0" transform="translate(59,145)"/>
<path d="M0 0 C0.33 0 0.66 0 1 0 C1.55599134 11.49048776 -2.5333174 20.5777406 -7 31 C-7.30292969 31.89460938 -7.60585937 32.78921875 -7.91796875 33.7109375 C-9.51491723 37.08931949 -11.60504224 37.79830988 -14.8984375 39.27734375 C-17.73540422 40.25288063 -20.03610929 40.42341296 -23 40 C-23.66 39.34 -24.32 38.68 -25 38 C-24.85405329 33.76754545 -21.83487786 31.83487786 -19 29 C-18.18064951 27.80264366 -17.39735301 26.58010857 -16.64453125 25.33984375 C-16.21188965 24.6329541 -15.77924805 23.92606445 -15.33349609 23.19775391 C-14.89344238 22.47249512 -14.45338867 21.74723633 -14 21 C-12.31661357 18.26828484 -10.62661802 15.54067361 -8.9375 12.8125 C-8.51662109 12.12736328 -8.09574219 11.44222656 -7.66210938 10.73632812 C-5.31779415 6.95998159 -2.93037149 3.36111651 0 0 Z " fill="#E87715" transform="translate(236,126)"/>
<path d="M0 0 C2.77562936 3.37462536 4.6176508 7.05749391 6.4375 11 C6.74461914 11.65846924 7.05173828 12.31693848 7.36816406 12.99536133 C9.6791995 18.05364928 11.51212709 23.17107495 13.078125 28.51171875 C14.04899676 31.13224973 15.14337076 32.91962313 17 35 C19.06874034 35.6425235 19.06874034 35.6425235 21 36 C21.33 36.66 21.66 37.32 22 38 C22.99 38 23.98 38 25 38 C24.35155914 42.19283118 23.48783354 46.26499921 22.4375 50.375 C22.16808594 51.43460938 21.89867188 52.49421875 21.62109375 53.5859375 C21.41613281 54.38257813 21.21117188 55.17921875 21 56 C19.35 56 17.7 56 16 56 C15.88027832 55.46052734 15.76055664 54.92105469 15.63720703 54.36523438 C15.28426629 52.77580521 14.9301663 51.18663322 14.57519531 49.59765625 C14.20821518 47.94032663 13.84752796 46.2815824 13.49511719 44.62109375 C10.6876263 31.39277126 10.6876263 31.39277126 2.73828125 20.6953125 C-1.07090287 16.98028799 -1.09301341 12.84209397 -1.1875 7.8125 C-1.16446747 4.81366524 -0.95991417 2.87974251 0 0 Z M17 42 C18 44 18 44 18 44 Z " fill="#89C3C9" transform="translate(44,157)"/>
<path d="M0 0 C6.27564861 0.59768082 10.15963513 2.91093718 14.3125 7.625 C17.80253027 12.53689445 17.57121365 17.10539247 17 23 C15.7021887 27.39421979 14.3291393 30.27501493 10.25 32.5 C9.13625 32.7475 9.13625 32.7475 8 33 C5.54555031 31.3637002 4.46715966 30.51444139 3 28 C2.13816966 23.34072974 1.76595014 18.73500873 2 14 C2.66 13.34 3.32 12.68 4 12 C4.48602588 7.70677141 4.46241608 5.67917361 2 2.0625 C1.34 1.381875 0.68 0.70125 0 0 Z " fill="#55919C" transform="translate(349,184)"/>
<path d="M0 0 C1.15974728 6.00828577 0.81559976 11.45950901 0.22265625 17.52734375 C0.13245712 18.51626114 0.042258 19.50517853 -0.05067444 20.52406311 C-0.33869245 23.66263261 -0.63792418 26.80001475 -0.9375 29.9375 C-1.13550855 32.07349897 -1.3327821 34.20956621 -1.52929688 36.34570312 C-2.01102538 41.56462249 -2.50194916 46.78261438 -3 52 C-4.32 51.67 -5.64 51.34 -7 51 C-7.08302368 49.45844238 -7.08302368 49.45844238 -7.16772461 47.88574219 C-7.37657841 44.0165049 -7.58774705 40.14739662 -7.79956055 36.27832031 C-7.89034621 34.61429133 -7.98053165 32.95022947 -8.07006836 31.28613281 C-8.57854077 21.84388543 -9.13098725 12.4176187 -10 3 C-6.27034861 0.96564469 -4.33094958 0 0 0 Z " fill="#ABCDD1" transform="translate(68,141)"/>
<path d="M0 0 C8.3451615 2.40581232 17.05126227 6.80076716 24 12 C24 12.99 24 13.98 24 15 C19.69235185 13.43358249 15.93828536 11.31663844 12 9 C11.34 9.66 10.68 10.32 10 11 C7.49609375 10.94140625 7.49609375 10.94140625 4.4375 10.5625 C0.4230223 10.12446946 -2.96885877 10.02174765 -6.9375 10.75 C-10.60920877 11.27835153 -10.81219902 11.13146068 -14.125 8.8125 C-16 6 -16 6 -16 3.8125 C-12.81963241 -1.95191625 -5.58568325 -0.63159669 0 0 Z " fill="#F2F2F2" transform="translate(329,65)"/>
<path d="M0 0 C2.97176035 4.64337555 3.52296513 8.4565696 3 14 C2 16.4375 2 16.4375 1 18 C0.195625 17.979375 -0.60875 17.95875 -1.4375 17.9375 C-3.93354885 17.70366379 -3.93354885 17.70366379 -5 19 C-6.66617115 19.04063832 -8.33388095 19.042721 -10 19 C-15.11366153 8.09231853 -15.11366153 8.09231853 -13 2 C-9.28652136 -1.60094898 -4.68903947 -1.98928947 0 0 Z " fill="#925C3C" transform="translate(161,105)"/>
<path d="M0 0 C6.39456368 1.52724531 10.79415459 2.81279066 15 8 C15.66 7.67 16.32 7.34 17 7 C17 7.99 17 8.98 17 10 C18.918125 9.938125 18.918125 9.938125 20.875 9.875 C23.0546875 9.8046875 23.0546875 9.8046875 25 10 C25.66 10.66 26.32 11.32 27 12 C26.39671875 12.15855469 25.7934375 12.31710938 25.171875 12.48046875 C19.97411126 13.99788042 16.86816822 15.14617687 14 20 C12.89573558 22.30935298 11.93606651 24.61303041 11 27 C10.67 27 10.34 27 10 27 C9.87625 26.33355469 9.7525 25.66710937 9.625 24.98046875 C8.01642733 17.79215964 5.28294256 13.13399204 0.546875 7.5078125 C-1 5 -1 5 -0.734375 2.1796875 C-0.49203125 1.46039063 -0.2496875 0.74109375 0 0 Z " fill="#B2D5D9" transform="translate(321,172)"/>
<path d="M0 0 C4.10368909 4.31413469 4.60666231 8.29660352 5 14 C4.34 14 3.68 14 3 14 C1.515 9.545 1.515 9.545 0 5 C-3.10721061 4.65766227 -3.10721061 4.65766227 -5.0625 6.9375 C-7.52308079 10.82680512 -8.25578632 14.50534105 -9 19 C-10.32 19.33 -11.64 19.66 -13 20 C-16.10733672 16.98976756 -17.32938338 14.7583064 -17.5 10.5 C-17.34316469 7.2497235 -16.98420085 5.97249778 -15.3125 3.0625 C-10.66457144 -1.08294979 -5.90892003 -2.089137 0 0 Z " fill="#F2F2F2" transform="translate(313,35)"/>
<path d="M0 0 C0.20625 0.70125 0.4125 1.4025 0.625 2.125 C2.45781577 5.95725116 4.90251519 8.10452507 8 11 C6.49364535 15.21779303 3.75987578 16.7747674 0 19 C-3.47325181 20.1577506 -6.36067448 20.06866652 -10 20 C-10.6538198 12.93874611 -8.91174833 7.92822704 -5 2 C-2 0 -2 0 0 0 Z " fill="#EEEFEF" transform="translate(343,187)"/>
<path d="M0 0 C3.6875 0.3125 3.6875 0.3125 7 1 C8.1875 3.75 8.1875 3.75 9 7 C7.8125 9.375 7.8125 9.375 6 11 C5.01 11 4.02 11 3 11 C2.67 13.31 2.34 15.62 2 18 C1.01 18.33 0.02 18.66 -1 19 C-1.33 17.02 -1.66 15.04 -2 13 C-2.9075 13.061875 -3.815 13.12375 -4.75 13.1875 C-8.28982642 12.98327924 -9.44931155 12.35448165 -12 10 C-11.6875 8.125 -11.6875 8.125 -11 6 C-8 4 -8 4 -5.5 3.5625 C-2.92974543 3.24815127 -2.92974543 3.24815127 -1.625 1.375 C-1.08875 0.92125 -0.5525 0.4675 0 0 Z " fill="#E8E1E1" transform="translate(245,100)"/>
<path d="M0 0 C3.53191322 3.43153914 6.7137505 6.97375062 9.8125 10.8125 C10.60269531 11.78832031 11.39289063 12.76414063 12.20703125 13.76953125 C13.09455078 14.87361328 13.09455078 14.87361328 14 16 C12 18 12 18 8.5234375 18.1953125 C7.14049032 18.18201493 5.75761346 18.15816232 4.375 18.125 C3.31539062 18.11146484 3.31539062 18.11146484 2.234375 18.09765625 C0.48943902 18.07407603 -1.25532295 18.03820461 -3 18 C-2.57045059 11.74892565 -1.98598493 5.95795479 0 0 Z " fill="#EEEFEF" transform="translate(242,205)"/>
<path d="M0 0 C2.84375502 3.43331399 4.66291383 7.22238825 6.5 11.25 C6.80679688 11.91805664 7.11359375 12.58611328 7.4296875 13.27441406 C13.28792027 26.1362392 13.28792027 26.1362392 12 30 C0.44020054 20.5164752 0.44020054 20.5164752 -1 13 C-1.09053693 11.31441541 -1.13009203 9.62550664 -1.125 7.9375 C-1.12757812 7.08027344 -1.13015625 6.22304687 -1.1328125 5.33984375 C-1 3 -1 3 0 0 Z " fill="#8CB3BA" transform="translate(44,157)"/>
<path d="M0 0 C1.4585872 0.64525977 2.91686137 1.2912272 4.375 1.9375 C5.59316406 2.47697266 5.59316406 2.47697266 6.8359375 3.02734375 C8.23683785 3.6569903 9.62625284 4.31312642 11 5 C9.2703384 9.20953787 6.31793255 12.35143576 3.375 15.75 C2.859375 16.35199219 2.34375 16.95398438 1.8125 17.57421875 C0.54530865 19.05260866 -0.72685775 20.52673171 -2 22 C-2.99 21.67 -3.98 21.34 -5 21 C-4.5087817 18.21642962 -3.90858127 15.76637436 -2.875 13.125 C-1.75081174 9.93601214 -1.75081174 9.93601214 -2.5625 6.3125 C-2.706875 5.219375 -2.85125 4.12625 -3 3 C-1.52734375 1.29296875 -1.52734375 1.29296875 0 0 Z " fill="#E5E5E4" transform="translate(278,216)"/>
<path d="M0 0 C2.0625 0.4375 2.0625 0.4375 4 1 C4.625 2.875 4.625 2.875 5 5 C3 7 3 7 0.1015625 7.8828125 C-8.99969824 11.16110037 -14.3836236 24.39540993 -18.96337891 32.30615234 C-19.45757324 33.15516113 -19.95176758 34.00416992 -20.4609375 34.87890625 C-21.12295166 36.03241577 -21.12295166 36.03241577 -21.79833984 37.20922852 C-23 39 -23 39 -25 40 C-25.99 39.67 -26.98 39.34 -28 39 C-26.86547859 35.59643577 -25.25392563 33.77562994 -23 31 C-21.79786032 29.15529122 -20.6110718 27.30051355 -19.4375 25.4375 C-15.62275946 19.62217185 -11.27066499 14.75811394 -6.41796875 9.7890625 C-3.99028388 6.98879272 -2.53254902 4.3551704 -1 1 C-0.67 0.67 -0.34 0.34 0 0 Z " fill="#D4E5E7" transform="translate(97,158)"/>
<path d="M0 0 C0.5775 0.391875 1.155 0.78375 1.75 1.1875 C3.69655396 4.01000324 3.18814456 6.67611284 3 10 C1.02 10.99 1.02 10.99 -1 12 C-2.17858863 10.9296491 -3.3425361 9.84316035 -4.5 8.75 C-5.1496875 8.14671875 -5.799375 7.5434375 -6.46875 6.921875 C-8 5 -8 5 -8 1 C-11.8951574 2.62298225 -13.48346415 4.45791211 -15.1875 8.1875 C-16.88804834 12.38723476 -18.03510816 16.57757904 -19 21 C-19.33 21 -19.66 21 -20 21 C-20.66210308 13.84928675 -18.8796649 9.02200734 -15 3 C-10.76718302 -1.44988451 -5.4678872 -3.77095669 0 0 Z " fill="#7BA8B1" transform="translate(351,186)"/>
<path d="M0 0 C0.33 0 0.66 0 1 0 C2.65768817 4.30998925 3.36179005 8.29021083 3.75390625 12.8515625 C3.9968556 14.97254887 4.43692834 16.94315972 5 19 C6.65 19 8.3 19 10 19 C1.27252405 23.74503547 -11.02618207 27.4986909 -21 27 C-21 26.34 -21 25.68 -21 25 C-13.15103405 20.39746499 -7.14803051 18.02757156 2 19 C1.57402679 13.32783047 0.84546238 8.40456839 -1 3 C-0.67 2.01 -0.34 1.02 0 0 Z " fill="#9CCBD1" transform="translate(328,188)"/>
<path d="M0 0 C1.65 0 3.3 0 5 0 C5.33 3.3 5.66 6.6 6 10 C-0.93 10 -7.86 10 -15 10 C-14.67 8.68 -14.34 7.36 -14 6 C-11.09375 4.55078125 -11.09375 4.55078125 -7.5 3.3125 C-3.45612676 2.17379663 -3.45612676 2.17379663 0 0 Z " fill="#E5E5E5" transform="translate(216,233)"/>
<path d="M0 0 C3.95925268 1.31975089 4.7156424 2.46962917 7 6 C11 16.11604096 11 16.11604096 11 21 C7.98264206 20.66700329 7.01144059 20.01183726 4.859375 17.78515625 C4.16328125 16.88667969 3.4671875 15.98820313 2.75 15.0625 C1.69039063 13.71865234 1.69039063 13.71865234 0.609375 12.34765625 C-1 10 -1 10 -1 8 C-1.66 8 -2.32 8 -3 8 C-3 7.34 -3 6.68 -3 6 C-3.66 6 -4.32 6 -5 6 C-3.63016497 2.83884224 -3.0109362 2.0072908 0 0 Z " fill="#181746" transform="translate(113,217)"/>
<path d="M0 0 C0.75667969 0.31710938 1.51335937 0.63421875 2.29296875 0.9609375 C5.19273275 2.07397823 7.93107512 2.57177792 11 3 C11.99 6.3 12.98 9.6 14 13 C13.01 13.33 12.02 13.66 11 14 C10.67 14.66 10.34 15.32 10 16 C10 15.34 10 14.68 10 14 C9.36191406 13.95101562 8.72382813 13.90203125 8.06640625 13.8515625 C7.24011719 13.77679688 6.41382813 13.70203125 5.5625 13.625 C4.73878906 13.55539063 3.91507813 13.48578125 3.06640625 13.4140625 C2.38449219 13.27742188 1.70257813 13.14078125 1 13 C-0.32229189 10.35541621 -0.09677194 8.32238699 -0.0625 5.375 C-0.05347656 4.37210937 -0.04445312 3.36921875 -0.03515625 2.3359375 C-0.02355469 1.56507812 -0.01195312 0.79421875 0 0 Z " fill="#DDAF93" transform="translate(232,110)"/>
<path d="M0 0 C-0.99 11.22 -1.98 22.44 -3 34 C-3.33 34 -3.66 34 -4 34 C-4.99 23.44 -5.98 12.88 -7 2 C-4 0 -4 0 0 0 Z " fill="#EDEEEF" transform="translate(68,141)"/>
<path d="M0 0 C0.33 1.32 0.66 2.64 1 4 C-0.98 4 -2.96 4 -5 4 C-5.33 5.32 -5.66 6.64 -6 8 C-6.99 8 -7.98 8 -9 8 C-9 9.65 -9 11.3 -9 13 C-9.99 13 -10.98 13 -12 13 C-13.8558861 10.27075574 -13.99663207 8.80802824 -13.9375 5.4375 C-13 2 -13 2 -10.9375 0 C-6.88727592 -1.37879969 -4.18748775 -0.78071805 0 0 Z " fill="#E4DBDB" transform="translate(161,105)"/>
<path d="M0 0 C-0.57344937 2.86724686 -0.8614515 3.8614515 -3 6 C-2.67 6.66 -2.34 7.32 -2 8 C-4.97 8 -7.94 8 -11 8 C-11 7.01 -11 6.02 -11 5 C-12.21236328 5.03480469 -12.21236328 5.03480469 -13.44921875 5.0703125 C-14.51785156 5.08835938 -15.58648437 5.10640625 -16.6875 5.125 C-17.74324219 5.14820313 -18.79898438 5.17140625 -19.88671875 5.1953125 C-23.05522823 4.99653524 -25.18862338 4.44874543 -28 3 C-28.33 2.34 -28.66 1.68 -29 1 C-27.72125 1.17917969 -26.4425 1.35835937 -25.125 1.54296875 C-23.41679628 1.75884065 -21.7084551 1.97362673 -20 2.1875 C-18.74123047 2.36829102 -18.74123047 2.36829102 -17.45703125 2.55273438 C-10.66880385 3.3683741 -6.21361956 0 0 0 Z " fill="#7D4B35" transform="translate(198,140)"/>
<path d="M0 0 C2.37396519 0.95448085 3.71993369 1.51015429 5.01171875 3.76953125 C5.34623047 4.78080078 5.34623047 4.78080078 5.6875 5.8125 C5.91824219 6.47894531 6.14898437 7.14539063 6.38671875 7.83203125 C7.68255259 12.41284515 8.11488727 16.54525799 8.0625 21.3125 C8.05347656 22.38113281 8.04445313 23.44976562 8.03515625 24.55078125 C8.02355469 25.35902344 8.01195312 26.16726562 8 27 C7.34 27 6.68 27 6 27 C4 18 2 9 0 0 Z " fill="#558E9E" transform="translate(54,186)"/>
<path d="M0 0 C1.65 0 3.3 0 5 0 C4.125 7.625 4.125 7.625 3 11 C-0.63 11.33 -4.26 11.66 -8 12 C-8 11.01 -8 10.02 -8 9 C-6.50834918 7.73533952 -5.01201855 6.47456633 -3.46875 5.2734375 C-1.69333409 3.73411413 -0.8127486 2.19442123 0 0 Z " fill="#7F4F37" transform="translate(124,174)"/>
<path d="M0 0 C0.33 0 0.66 0 1 0 C1.00257813 0.66386719 1.00515625 1.32773438 1.0078125 2.01171875 C1.11851533 7.24557937 1.11851533 7.24557937 3.40234375 11.77734375 C5.21303982 13.29931277 5.21303982 13.29931277 8 15 C7.67 15.66 7.34 16.32 7 17 C3.04 16.67 -0.92 16.34 -5 16 C-5 13.36 -5 10.72 -5 8 C-3.35 8 -1.7 8 0 8 C0 5.36 0 2.72 0 0 Z " fill="#E1B498" transform="translate(267,169)"/>
<path d="M0 0 C0.33 0.99 0.66 1.98 1 3 C2.918125 2.938125 2.918125 2.938125 4.875 2.875 C7.0546875 2.8046875 7.0546875 2.8046875 9 3 C9.66 3.66 10.32 4.32 11 5 C10.39671875 5.15855469 9.7934375 5.31710938 9.171875 5.48046875 C3.92903591 7.01103952 1.03131318 8.21985229 -2 13 C-2.5775 13.763125 -3.155 14.52625 -3.75 15.3125 C-4.36875 16.1478125 -4.36875 16.1478125 -5 17 C-4.69343615 10.37822074 -3.25711277 5.77874846 0 0 Z " fill="#E9ECED" transform="translate(337,179)"/>
<path d="M0 0 C4.62 0.99 9.24 1.98 14 3 C14.33 4.98 14.66 6.96 15 9 C11.11383371 9.56673258 9.08775206 9.72075397 5.75390625 7.51171875 C3.70785919 5.75014882 1.77383876 4.03645905 0 2 C0 1.34 0 0.68 0 0 Z " fill="#75A4AD" transform="translate(301,167)"/>
<path d="M0 0 C2.31 0.66 4.62 1.32 7 2 C7 5.96 7 9.92 7 14 C0.51119403 7.68656716 0.51119403 7.68656716 -1 5 C-0.6875 2.25 -0.6875 2.25 0 0 Z " fill="#EDEEEF" transform="translate(321,172)"/>
<path d="M0 0 C0.99 0 1.98 0 3 0 C4.46493069 2.92986139 4.39150493 5.7444116 4.625 9 C4.72039063 10.258125 4.81578125 11.51625 4.9140625 12.8125 C5 16 5 16 4 18 C3.77532169 19.53668865 3.59203195 21.07968054 3.4375 22.625 C3.35371094 23.44226563 3.26992188 24.25953125 3.18359375 25.1015625 C3.12300781 25.72804687 3.06242187 26.35453125 3 27 C2.67 27 2.34 27 2 27 C1.34 18.09 0.68 9.18 0 0 Z " fill="#B7D8DB" transform="translate(58,144)"/>
<path d="M0 0 C2.75 -0.0625 2.75 -0.0625 6 1 C7.89104852 3.80589205 9.16607772 6.72182277 10 10 C9.67 10.99 9.34 11.98 9 13 C7.67876058 11.59148053 6.36830231 10.17284259 5.0625 8.75 C4.33160156 7.96109375 3.60070313 7.1721875 2.84765625 6.359375 C1.08579457 4.10955586 0.40223397 2.78371446 0 0 Z " fill="#EBEDED" transform="translate(44,172)"/>
<path d="M0 0 C0.99 0.33 1.98 0.66 3 1 C2.74500159 2.79398884 2.47046186 4.58520875 2.1875 6.375 C2.03667969 7.37273438 1.88585937 8.37046875 1.73046875 9.3984375 C1 12 1 12 -2 14 C-2.66666667 11.33333333 -3.33333333 8.66666667 -4 6 C-3.01 6 -2.02 6 -1 6 C-1.020625 5.195625 -1.04125 4.39125 -1.0625 3.5625 C-1 1 -1 1 0 0 Z " fill="#C4E0E4" transform="translate(93,30)"/>
<path d="M0 0 C0.33 0 0.66 0 1 0 C1.33 5.94 1.66 11.88 2 18 C0.68 18 -0.64 18 -2 18 C-2.2361959 11.59646678 -1.823321 6.15370839 0 0 Z " fill="#E73B2E" transform="translate(145,144)"/>
<path d="M0 0 C0.99 1.32 1.98 2.64 3 4 C1.71034824 5.37562854 0.37310707 6.70766393 -1 8 C-1.66 8 -2.32 8 -3 8 C-3 7.34 -3 6.68 -3 6 C-4.98 6 -6.96 6 -9 6 C-9 5.34 -9 4.68 -9 4 C-6.03 2.68 -3.06 1.36 0 0 Z " fill="#DFB399" transform="translate(210,162)"/>
<path d="M0 0 C3.30439099 4.40585465 3.86678482 6.76977608 5 12 C2.69 12 0.38 12 -2 12 C-1.34 8.04 -0.68 4.08 0 0 Z " fill="#E8952F" transform="translate(253,158)"/>
<path d="M0 0 C2.97 0.495 2.97 0.495 6 1 C5.93941406 1.74378906 5.87882812 2.48757812 5.81640625 3.25390625 C6.03482379 6.52087505 6.8215698 7.50293561 8.9375 9.9375 C11.61572241 13.25849579 12.78155496 15.63109918 13 20 C10.08276268 16.22988267 7.45609073 12.27600051 4.8125 8.3125 C4.34908203 7.62349609 3.88566406 6.93449219 3.40820312 6.22460938 C0 1.11983385 0 1.11983385 0 0 Z " fill="#7BA7B0" transform="translate(315,171)"/>
<path d="M0 0 C1.32 1.32 2.64 2.64 4 4 C3.82887125 8.6204762 2.58191144 12.67610872 1 17 C0.67 17 0.34 17 0 17 C0 11.39 0 5.78 0 0 Z " fill="#F0F1F1" transform="translate(330,175)"/>
<path d="M0 0 C1.65 0.99 3.3 1.98 5 3 C4.34 4.32 3.68 5.64 3 7 C1.35 6.67 -0.3 6.34 -2 6 C-2 2 -2 2 0 0 Z " fill="#DDB399" transform="translate(278,216)"/>
<path d="M0 0 C5.61 0.66 11.22 1.32 17 2 C16.67 2.66 16.34 3.32 16 4 C5.1005291 4.38095238 5.1005291 4.38095238 1 2 C0.67 1.34 0.34 0.68 0 0 Z " fill="#ECDBDA" transform="translate(169,141)"/>
<path d="M0 0 C0.99 0 1.98 0 3 0 C2.40075776 4.19469571 1.42500059 8.00999834 0 12 C-0.33 12 -0.66 12 -1 12 C-1.02698189 10.37509046 -1.04638757 8.75005367 -1.0625 7.125 C-1.07410156 6.22007812 -1.08570312 5.31515625 -1.09765625 4.3828125 C-1 2 -1 2 0 0 Z " fill="#8CC6CD" transform="translate(66,195)"/>
<path d="M0 0 C0.66 0.99 1.32 1.98 2 3 C0 5 0 5 -3.125 5.125 C-4.548125 5.063125 -4.548125 5.063125 -6 5 C-5.67 3.68 -5.34 2.36 -5 1 C-3.35 0.67 -1.7 0.34 0 0 Z " fill="#85AFB6" transform="translate(310,136)"/>
<path d="M0 0 C1.65 0 3.3 0 5 0 C4.67 1.65 4.34 3.3 4 5 C2.35 4.67 0.7 4.34 -1 4 C-0.67 2.68 -0.34 1.36 0 0 Z " fill="#D3B09A" transform="translate(216,233)"/>
<path d="M0 0 C1.80125336 2.70188004 3.00243753 4.93057703 4 8 C3.67 8.99 3.34 9.98 3 11 C1 10 1 10 0.33203125 8.22265625 C0.07486328 7.15337891 0.07486328 7.15337891 -0.1875 6.0625 C-0.36667969 5.35222656 -0.54585937 4.64195312 -0.73046875 3.91015625 C-1 2 -1 2 0 0 Z " fill="#97B9BF" transform="translate(53,176)"/>
<path d="M0 0 C0.33 0.66 0.66 1.32 1 2 C1.66 2.33 2.32 2.66 3 3 C2.38125 3.2475 1.7625 3.495 1.125 3.75 C-1.35068687 5.20628639 -1.95125002 6.37812506 -3 9 C-3.66 8.34 -4.32 7.68 -5 7 C-3.35 4.69 -1.7 2.38 0 0 Z " fill="#C0D3D7" transform="translate(79,59)"/>
<path d="M0 0 C0.99 0.33 1.98 0.66 3 1 C2.67 2.98 2.34 4.96 2 7 C1.01 6.34 0.02 5.68 -1 5 C-0.67 3.35 -0.34 1.7 0 0 Z " fill="#B5CFD4" transform="translate(93,30)"/>
</svg>
