<?xml version="1.0" encoding="UTF-8"?>
<svg version="1.1" xmlns="http://www.w3.org/2000/svg" width="400" height="173">
<path d="M0 0 C10.92667525 6.43500506 14.27828187 18.49265655 17.578125 29.99609375 C18.40740897 33.60261906 18.75617211 37.03820948 18.89453125 40.734375 C18.93642578 41.80107422 18.97832031 42.86777344 19.02148438 43.96679688 C19.06080078 45.06958984 19.10011719 46.17238281 19.140625 47.30859375 C19.18380859 48.43072266 19.22699219 49.55285156 19.27148438 50.70898438 C19.37727287 53.47123944 19.47936172 56.23358005 19.578125 58.99609375 C20.238125 58.66609375 20.898125 58.33609375 21.578125 57.99609375 C26.85981396 57.40073429 31.14297602 57.0775984 35.703125 59.99609375 C38.18282643 63.96361603 38.50380281 66.31379597 38.578125 70.99609375 C37.58203125 73.2421875 37.58203125 73.2421875 36.578125 74.99609375 C24.54647641 74.75692585 12.51491576 74.51375793 0.48344898 74.26560307 C-5.10434019 74.15047536 -10.69214964 74.03668155 -16.2800293 73.92602539 C-21.68120959 73.81901584 -27.0823051 73.70838585 -32.4833622 73.59533501 C-34.53520446 73.55300663 -36.58707324 73.51194255 -38.63896751 73.47221565 C-56.48675525 73.12527703 -56.48675525 73.12527703 -65.09887695 72.65014648 C-66.0736348 72.59696762 -67.04839264 72.54378876 -68.0526886 72.48899841 C-70.81517665 71.9142681 -71.82353242 71.30899888 -73.421875 68.99609375 C-73.29912911 65.55920896 -73.10400058 63.01928212 -71.171875 60.12109375 C-68.97020396 58.7057338 -66.99718992 58.34410928 -64.421875 57.99609375 C-65.081875 56.98546875 -65.741875 55.97484375 -66.421875 54.93359375 C-68.56768429 51.15360941 -68.98959173 48.3756228 -68.421875 43.99609375 C-66.6192342 39.82155715 -64.58309464 37.80531968 -60.421875 35.99609375 C-54.56638997 34.41260655 -50.06580369 34.83602453 -44.640625 37.5390625 C-40.69070227 40.13293782 -37.55145605 43.4827766 -34.421875 46.99609375 C-33.22290383 40.86093275 -32.28228657 34.77501491 -31.609375 28.55859375 C-30.34947338 18.8265978 -27.43110795 8.7309952 -19.4140625 2.4140625 C-12.98450299 -1.32267411 -7.11167778 -2.94790514 0 0 Z M-21.171875 8.55859375 C-27.33199103 16.8602424 -28.35342129 27.62179434 -29.546875 37.55859375 C-29.85441332 40.06083733 -30.16913902 42.56221153 -30.4921875 45.0625 C-30.62383301 46.15506104 -30.75547852 47.24762207 -30.89111328 48.37329102 C-31.421875 50.99609375 -31.421875 50.99609375 -33.421875 52.99609375 C-34.07414062 52.23683594 -34.72640625 51.47757813 -35.3984375 50.6953125 C-36.28075559 49.69097169 -37.16359611 48.68708968 -38.046875 47.68359375 C-38.90539062 46.69746094 -39.76390625 45.71132812 -40.6484375 44.6953125 C-44.79145484 40.66316464 -48.66080876 38.56782286 -54.484375 38.55859375 C-57.85516743 38.68042962 -59.41309128 38.99161226 -62.484375 40.55859375 C-65.07990175 43.82393385 -65.49364439 45.83346913 -65.421875 49.99609375 C-63.59600901 53.5073745 -61.52894373 55.88902502 -58.734375 58.68359375 C-56.421875 60.99609375 -56.421875 60.99609375 -55.421875 63.99609375 C-56.2675 63.66609375 -57.113125 63.33609375 -57.984375 62.99609375 C-61.69511941 61.91660447 -64.57863402 61.62655135 -68.421875 61.99609375 C-70.72859415 64.71158529 -70.72859415 64.71158529 -70.046875 67.18359375 C-69.840625 67.78171875 -69.634375 68.37984375 -69.421875 68.99609375 C-48.51951177 69.99625191 -27.60784864 70.48957959 -6.68896484 70.99188232 C-2.02177282 71.10440308 2.64536054 71.21930761 7.3125 71.33398438 C16.40098718 71.55696066 25.48953416 71.77738615 34.578125 71.99609375 C34.61035156 70.71734375 34.64257812 69.43859375 34.67578125 68.12109375 C34.69390869 67.40179688 34.71203613 66.6825 34.73071289 65.94140625 C34.74526355 63.83066734 34.74526355 63.83066734 33.015625 61.99609375 C28.82931568 60.27863352 25.38266127 60.33232324 21.125 61.8984375 C18.91066044 62.87678564 16.73624966 63.89990345 14.578125 64.99609375 C14.81595703 63.83207031 14.81595703 63.83207031 15.05859375 62.64453125 C17.66976391 44.30744155 15.84918531 24.82241505 5.578125 8.99609375 C2.36452224 4.9713653 -0.75588931 2.7918257 -5.859375 1.87109375 C-12.29767154 1.57495405 -16.58358782 4.28314433 -21.171875 8.55859375 Z " fill="#D1D9DB" transform="translate(110.421875,19.00390625)"/>
<path d="M0 0 C2.4820578 2.07956194 3.73211821 3.75732616 4.421875 6.95703125 C5.08552764 17.77825621 0.34845117 29.2701811 -4 39 C-3.01 38.67 -2.02 38.34 -1 38 C3.60822792 37.6222764 6.08460326 37.58548072 10.3125 39.5 C14.17366674 43.09178301 15.84748407 46.72090741 16.09375 52.015625 C15.61115566 58.14457317 13.29969058 63.71309152 8.93554688 68.05297852 C5.23834457 70.50517316 2.01073022 70.77669208 -2.296875 71.01171875 C-3.11146683 71.07004883 -3.92605865 71.12837891 -4.76533508 71.18847656 C-7.42601812 71.37334774 -10.08750175 71.53113809 -12.75 71.6875 C-14.58656715 71.80809043 -16.42307423 71.92959914 -18.25952148 72.05200195 C-34.82515905 73.12155064 -51.40400182 73.69168884 -68 74 C-69 71 -69 71 -67.3046875 67.56640625 C-66.50560024 66.22527147 -65.69518233 64.89083877 -64.875 63.5625 C-64.2871875 62.55993164 -64.2871875 62.55993164 -63.6875 61.53710938 C-61.28033636 57.56843599 -59.00265655 54.526319 -55 52 C-52.11109943 51.3857833 -50.00421638 51.70450331 -47 52 C-46.34 52.66 -45.68 53.32 -45 54 C-44.73896484 53.49774902 -44.47792969 52.99549805 -44.20898438 52.47802734 C-28.40670394 22.12574876 -28.40670394 22.12574876 -18 9 C-17.31550781 8.10925781 -16.63101563 7.21851562 -15.92578125 6.30078125 C-11.74314546 1.30367682 -6.47937268 -2.21246872 0 0 Z M-21.21777344 18.26586914 C-29.46780215 30.4155963 -35.88037237 43.51147157 -42.12890625 56.7734375 C-42.67140015 57.92465088 -42.67140015 57.92465088 -43.22485352 59.09912109 C-44.1258651 60.96651526 -44.1258651 60.96651526 -44 63 C-44.66 62.67 -45.32 62.34 -46 62 C-46.37366113 60.00714063 -46.70740515 58.00636471 -47 56 C-48.09043376 54.72095208 -48.09043376 54.72095208 -50.6875 54.5 C-54.86685623 55.13084622 -55.91637596 56.52506897 -58.5078125 59.6875 C-60.63246589 62.98015657 -62.30337705 66.47188061 -64 70 C-48.85586238 70.40726267 -33.80548128 69.87622378 -18.6920166 68.93496704 C-16.68987612 68.81170928 -14.68733333 68.69482028 -12.68444824 68.58432007 C-9.83362357 68.42432601 -6.98552449 68.23918037 -4.13671875 68.046875 C-2.84283485 67.97938805 -2.84283485 67.97938805 -1.52281189 67.91053772 C3.33416068 67.55172868 3.33416068 67.55172868 7.46166992 65.09863281 C11.28396184 59.88415553 12.54694753 55.76240318 12.36328125 49.34375 C11.84551082 46.00329558 10.4651435 44.24763084 8 42 C5.00818583 40.50409291 3.3583794 40.57256989 0 41 C-5.93561945 43.97295324 -9.60894858 47.39172265 -13 53 C-13.99 53.33 -14.98 53.66 -16 54 C-15.47212891 53.06994141 -15.47212891 53.06994141 -14.93359375 52.12109375 C-2.57004568 30.34808424 -2.57004568 30.34808424 1 6 C-0.66488146 2.76498875 -0.66488146 2.76498875 -3.625 2.375 C-11.85807853 3.89964417 -16.67305451 11.77551825 -21.21777344 18.26586914 Z " fill="#D2DADC" transform="translate(368,61)"/>
<path d="M0 0 C2.15260862 1.62697163 2.90551915 2.48683933 3.3984375 5.1640625 C3.34013243 11.28609515 2.30235692 16.32633473 0 22 C0.58652344 21.81050781 1.17304687 21.62101562 1.77734375 21.42578125 C5.42630746 20.72677063 7.8034147 22.31452775 11 24 C15.14919359 28.28750004 15.21506085 33.04013766 15.16796875 38.73828125 C14.94761985 41.70530475 14.12502672 44.25774737 13 47 C5.16806701 47.98339953 -2.55879282 48.13171317 -10.4453125 48.09765625 C-11.69633759 48.0962413 -12.94736267 48.09482635 -14.23629761 48.09336853 C-17.52744776 48.08875093 -20.81854689 48.07980053 -24.10968018 48.06866455 C-27.48196801 48.05834925 -30.85426337 48.05384945 -34.2265625 48.04882812 C-40.81772792 48.03785206 -47.4088598 48.02115405 -54 48 C-53.3046875 40.3046875 -53.3046875 40.3046875 -50.5625 37.5625 C-46.37940077 35.01182974 -43.94739774 34.8264071 -39 35 C-38.01 35.33 -37.02 35.66 -36 36 C-35.75121094 35.14535156 -35.50242187 34.29070312 -35.24609375 33.41015625 C-33.91537239 29.76840156 -32.1694273 26.66444966 -30.0625 23.4375 C-29.6720752 22.83760254 -29.28165039 22.23770508 -28.87939453 21.61962891 C-25.92933051 17.19047581 -22.76400445 12.97704486 -19.375 8.875 C-18.72930054 8.07727173 -18.72930054 8.07727173 -18.07055664 7.26342773 C-13.05010065 1.37551859 -7.8769182 -2.27218794 0 0 Z M-12 6 C-21.85892562 15.24764088 -29.369988 26.76084347 -35 39 C-35.59167969 38.89300781 -36.18335938 38.78601563 -36.79296875 38.67578125 C-41.95616232 37.88863918 -41.95616232 37.88863918 -46.9375 39.1875 C-49.05401954 41.04747172 -49.83784871 42.4828741 -51 45 C-30.3028572 45.11795829 -9.67872653 44.98707645 11 44 C11.20246471 42.24198161 11.39285584 40.48256987 11.578125 38.72265625 C11.68543945 37.74304932 11.79275391 36.76344238 11.90332031 35.75415039 C12.0318054 32.09394758 11.12121927 29.95455541 9 27 C5.53076119 24.68717413 4.07794425 24.57521414 0 25 C-2.25738505 26.55681728 -2.86684202 27.57631553 -3.6875 30.1875 C-3.790625 30.785625 -3.89375 31.38375 -4 32 C-4.99 32 -5.98 32 -7 32 C-6.57847656 30.88882813 -6.15695313 29.77765625 -5.72265625 28.6328125 C-1.23495817 17.15187308 -1.23495817 17.15187308 0 5 C-0.82958375 2.78719596 -0.82958375 2.78719596 -3.1875 2.125 C-7.18605786 1.94728632 -8.81923229 3.6462319 -12 6 Z " fill="#D2DADC" transform="translate(71,107)"/>
<path d="M0 0 C1.051875 0.08507812 2.10375 0.17015625 3.1875 0.2578125 C6.1633512 0.91084651 7.29061678 1.38038774 9 3.875 C8.6875 6.5625 8.6875 6.5625 8 8.875 C7.01 8.875 6.02 8.875 5 8.875 C5 7.225 5 5.575 5 3.875 C4.01 4.535 3.02 5.195 2 5.875 C1.01 5.875 0.02 5.875 -1 5.875 C-1 4.885 -1 3.895 -1 2.875 C-2.99863756 3.45444932 -2.99863756 3.45444932 -5 4.875 C-6.29231642 7.91699472 -6.29231642 7.91699472 -7 10.875 C-7.99 10.875 -8.98 10.875 -10 10.875 C-9.39307625 3.47053024 -9.39307625 3.47053024 -7.83203125 1.10546875 C-5.13753348 -0.70426856 -3.1874085 -0.30467875 0 0 Z " fill="#837D79" transform="translate(194,71.125)"/>
<path d="M0 0 C3.58588324 0.38766305 6.69987921 1.58566252 10 3 C9.67 5.31 9.34 7.62 9 10 C8.01 10 7.02 10 6 10 C6.33 8.35 6.66 6.7 7 5 C6.13375 5.7115625 6.13375 5.7115625 5.25 6.4375 C1.68959973 8.91000019 -0.65620535 9 -5 9 C-2.25 2.25 -2.25 2.25 0 0 Z " fill="#847E79" transform="translate(310,63)"/>
<path d="M0 0 C0.86625 0.18175781 1.7325 0.36351562 2.625 0.55078125 C3.49125 0.71964844 4.3575 0.88851562 5.25 1.0625 C7.82706467 1.93141161 9.01852129 2.68190882 10.625 4.86328125 C10.3125 7.55078125 10.3125 7.55078125 9.625 9.86328125 C7.625 8.86328125 7.625 8.86328125 6.625 5.86328125 C4.645 6.19328125 2.665 6.52328125 0.625 6.86328125 C-0.035 5.87328125 -0.695 4.88328125 -1.375 3.86328125 C-2.365 5.18328125 -3.355 6.50328125 -4.375 7.86328125 C-5.365 7.53328125 -6.355 7.20328125 -7.375 6.86328125 C-5.98370594 2.7964217 -4.91488471 -0.28292922 0 0 Z " fill="#827B77" transform="translate(266.375,55.13671875)"/>
<path d="M0 0 C2.5 1 2.5 1 5 2 C7.32597511 2.3813074 9.65912158 2.72460254 12 3 C12.33 4.32 12.66 5.64 13 7 C10.03 6.505 10.03 6.505 7 6 C7 7.32 7 8.64 7 10 C6.01 10 5.02 10 4 10 C3.67 8.02 3.34 6.04 3 4 C2.01 4.99 1.02 5.98 0 7 C-0.99 6.67 -1.98 6.34 -3 6 C-2.625 3.5625 -2.625 3.5625 -2 1 C-1.34 0.67 -0.68 0.34 0 0 Z " fill="#817B76" transform="translate(158,54)"/>
<path d="M0 0 C6.625 -0.25 6.625 -0.25 10 2 C10 2.66 10 3.32 10 4 C11.670625 3.7215625 11.670625 3.7215625 13.375 3.4375 C17 3 17 3 19 4 C18.67 4.99 18.34 5.98 18 7 C17.030625 7.12375 16.06125 7.2475 15.0625 7.375 C13.5465625 7.684375 13.5465625 7.684375 12 8 C11.67 8.66 11.34 9.32 11 10 C10.01 10 9.02 10 8 10 C7.34 8.02 6.68 6.04 6 4 C3.03 3.505 3.03 3.505 0 3 C0 2.01 0 1.02 0 0 Z " fill="#86807C" transform="translate(267,88)"/>
<path d="M0 0 C3 1 3 1 5 4 C5.763125 3.505 6.52625 3.01 7.3125 2.5 C10 1 10 1 13 1 C13 1.99 13 2.98 13 4 C11.02678947 5.3726682 9.02456848 6.70427617 7 8 C6.01 9.485 6.01 9.485 5 11 C4.01 11 3.02 11 2 11 C0.80712589 7.12315913 0 4.08378077 0 0 Z " fill="#827D79" transform="translate(215,96)"/>
<path d="M0 0 C1.423125 0.7425 1.423125 0.7425 2.875 1.5 C5.72278166 3.14424369 5.72278166 3.14424369 8 3 C8.78375 2.67 9.5675 2.34 10.375 2 C13 1 13 1 17 1 C16 4 16 4 13.78515625 5.38671875 C12.43744141 6.03060547 12.43744141 6.03060547 11.0625 6.6875 C10.16660156 7.12449219 9.27070313 7.56148437 8.34765625 8.01171875 C6 9 6 9 4 9 C3.731875 8.38125 3.46375 7.7625 3.1875 7.125 C2.04443152 4.7004767 2.04443152 4.7004767 -1 3 C-0.67 2.01 -0.34 1.02 0 0 Z " fill="#857E79" transform="translate(228,34)"/>
<path d="M0 0 C5.75 0.75 5.75 0.75 8 3 C11.59679066 2.67673447 11.59679066 2.67673447 15 2 C15 2.99 15 3.98 15 5 C14.030625 5.28875 13.06125 5.5775 12.0625 5.875 C8.89335797 6.64214682 8.89335797 6.64214682 8 9 C7.01 9 6.02 9 5 9 C4.731875 8.195625 4.46375 7.39125 4.1875 6.5625 C3.795625 5.716875 3.40375 4.87125 3 4 C2.01 3.67 1.02 3.34 0 3 C0 2.01 0 1.02 0 0 Z " fill="#847E7B" transform="translate(251,104)"/>
<path d="M0 0 C2.86724686 0.57344937 3.8614515 0.8614515 6 3 C7.65 2.01 9.3 1.02 11 0 C11 5.09037614 9.48257717 6.43643266 6 10 C5.01 10 4.02 10 3 10 C2.67 7.69 2.34 5.38 2 3 C1.34 3 0.68 3 0 3 C0 2.01 0 1.02 0 0 Z " fill="#817B77" transform="translate(290,38)"/>
<path d="M0 0 C2.86724686 0.57344937 3.8614515 0.8614515 6 3 C6.33 2.67 6.66 2.34 7 2 C8.99958364 1.95919217 11.00045254 1.95745644 13 2 C13 2.99 13 3.98 13 5 C11.02 5.33 9.04 5.66 7 6 C6.67 6.99 6.34 7.98 6 9 C5.01 9 4.02 9 3 9 C0 3.375 0 3.375 0 0 Z " fill="#837D79" transform="translate(184,47)"/>
<path d="M0 0 C1.6396875 0.2475 1.6396875 0.2475 3.3125 0.5 C6.87525873 1.06718184 6.87525873 1.06718184 10 1 C10.99 1 11.98 1 13 1 C13 1.99 13 2.98 13 4 C11.68 4.33 10.36 4.66 9 5 C8.67 6.32 8.34 7.64 8 9 C7.01 9 6.02 9 5 9 C4.67 7.35 4.34 5.7 4 4 C2.68 3.67 1.36 3.34 0 3 C0 2.01 0 1.02 0 0 Z " fill="#847F7A" transform="translate(235,72)"/>
<path d="M0 0 C2.35721457 0.45834728 4.68742958 0.91208957 7 1.5625 C9.37215345 2.08140857 11.57924572 2.06724317 14 2 C14 2.99 14 3.98 14 5 C7.375 8 7.375 8 4 8 C3.87625 7.071875 3.87625 7.071875 3.75 6.125 C3.18741541 3.81562433 3.18741541 3.81562433 0.9375 2.75 C0.298125 2.5025 -0.34125 2.255 -1 2 C-0.67 1.34 -0.34 0.68 0 0 Z " fill="#827D78" transform="translate(148,41)"/>
<path d="M0 0 C0.99 0.33 1.98 0.66 3 1 C3 2.32 3 3.64 3 5 C3.78375 4.938125 4.5675 4.87625 5.375 4.8125 C6.674375 4.9053125 6.674375 4.9053125 8 5 C8.99 6.485 8.99 6.485 10 8 C6.67395049 9.10868317 3.46941546 9.54177532 0 10 C0 6.7 0 3.4 0 0 Z " fill="#857E7A" transform="translate(221,46)"/>
<path d="M0 0 C0.66 0.33 1.32 0.66 2 1 C1.484375 1.598125 0.96875 2.19625 0.4375 2.8125 C-0.2740625 3.8953125 -0.2740625 3.8953125 -1 5 C-0.67 5.99 -0.34 6.98 0 8 C-0.33 8.99 -0.66 9.98 -1 11 C-1.99 11 -2.98 11 -4 11 C-3.38461538 3.49230769 -3.38461538 3.49230769 -1.4375 1 C-0.963125 0.67 -0.48875 0.34 0 0 Z " fill="#888380" transform="translate(188,71)"/>
<path d="M0 0 C0.99 0.33 1.98 0.66 3 1 C3.33 2.98 3.66 4.96 4 7 C3.01 7 2.02 7 1 7 C0.67 6.01 0.34 5.02 0 4 C-0.66 3.34 -1.32 2.68 -2 2 C-1.34 2 -0.68 2 0 2 C0 1.34 0 0.68 0 0 Z " fill="#8A8374" transform="translate(273,57)"/>
<path d="M0 0 C2 1 2 1 2 1 Z M-3 2 C-2.34 2.33 -1.68 2.66 -1 3 C-1 3.99 -1 4.98 -1 6 C-1.66 6.66 -2.32 7.32 -3 8 C-3.66 7.67 -4.32 7.34 -5 7 C-4.34 5.35 -3.68 3.7 -3 2 Z " fill="#CCD3D5" transform="translate(48,56)"/>
<path d="M0 0 C0.33 0 0.66 0 1 0 C1 1.65 1 3.3 1 5 C-0.98 5.99 -0.98 5.99 -3 7 C-2.25 2.25 -2.25 2.25 0 0 Z " fill="#DAE1E2" transform="translate(89,23)"/>
</svg>
